<?xml version="1.0"?>
<svg xmlns="http://www.w3.org/2000/svg" id="Layer_1" data-name="Layer 1" viewBox="0 0 512 512" width="512" height="512"><title>Plane 2</title><path d="M24.068,354.3,34.4,362.1l128.74-12.859a105.225,105.225,0,0,1-11.1-30.363Z"/><path d="M207,259.039v27.885a155.231,155.231,0,0,0,98,0V259.039A167.318,167.318,0,0,1,207,259.039Z"/><path d="M268.406,192.915l-12.4-82.994-12.4,82.994a105.816,105.816,0,0,1,24.8,0Z"/><path d="M348.726,349.505l128.879,12.6,10.32-7.792-128-35.176A105.224,105.224,0,0,1,348.726,349.505Z"/><path d="M256.006,204.186a94,94,0,1,0,94,94A94.107,94.107,0,0,0,256.006,204.186Zm60.994,87a6,6,0,0,1-3.949,5.638,167.206,167.206,0,0,1-114.1,0A6,6,0,0,1,195,291.187V250.7a6,6,0,0,1,8.05-5.639,155.2,155.2,0,0,0,105.9,0A6,6,0,0,1,317,250.7Z"/><path d="M322,147a6,6,0,0,0-6-6H268v12h48A6,6,0,0,0,322,147Z"/><path d="M196,141a6,6,0,0,0,0,12h48V141Z"/><path d="M90,375.57V362H78v13.57c-8,2.589-14.8,10.622-14.8,20.116a21.111,21.111,0,0,0,21.1,21A20.97,20.97,0,0,0,90,375.57Z"/><path d="M434,375.57V362H422v13.57a20.954,20.954,0,0,0,5.628,41.116,21.184,21.184,0,0,0,21.186-21C448.814,386.192,442,378.159,434,375.57Z"/><circle cx="231" cy="427.686" r="21"/><circle cx="281" cy="427.686" r="21"/></svg>
