<?xml version="1.0" encoding="utf-8"?>
<svg version="1.1" id="Слой_1" xmlns="http://www.w3.org/2000/svg" xmlns:xlink="http://www.w3.org/1999/xlink" x="0px" y="0px"
	 width="55.979px" height="55.831px" viewBox="7.083 227.837 55.979 55.831" enable-background="new 7.083 227.837 55.979 55.831"
	 xml:space="preserve">
<path d="M43.25,260.166c0,1.016-0.877,1.838-1.958,1.838s-1.958-0.822-1.958-1.838s0.877-1.838,1.958-1.838
	S43.25,259.15,43.25,260.166z M52.514,263.58c0,1.28-1.106,2.318-2.469,2.318c-1.363,0-2.469-1.038-2.469-2.318
	c0-1.279,1.105-2.316,2.469-2.316C51.407,261.264,52.514,262.301,52.514,263.58z M51.689,250.473c0,0.854-0.736,1.544-1.645,1.544
	s-1.646-0.691-1.646-1.544c0-0.853,0.738-1.544,1.646-1.544S51.689,249.62,51.689,250.473z M37.161,262.311
	c0,0.853-0.737,1.543-1.646,1.543s-1.646-0.69-1.646-1.543c0-0.854,0.737-1.545,1.646-1.545S37.161,261.457,37.161,262.311z
	 M54.605,257.832c0-0.326,0.281-0.59,0.629-0.59c0.346,0,0.628,0.264,0.628,0.59c0,0.325-0.282,0.59-0.628,0.59
	C54.887,258.422,54.605,258.157,54.605,257.832z M44.997,261.72c0-0.325,0.28-0.59,0.628-0.59s0.629,0.265,0.629,0.59
	c0,0.326-0.281,0.591-0.629,0.591S44.997,262.045,44.997,261.72z"/>
<path d="M35.516,268.015L35.516,268.015c0,0.569,0.491,1.03,1.098,1.03c0.605,0,1.098-0.461,1.098-1.03l0,0l0,0
	c0-0.569-0.492-1.03-1.098-1.03C36.007,266.984,35.516,267.445,35.516,268.015S35.516,268.015,35.516,268.015z"/>
<path d="M44.729,266.62c0-0.569,0.49-1.03,1.098-1.03c0.605,0,1.097,0.461,1.097,1.03s-0.491,1.03-1.097,1.03
	C45.219,267.65,44.729,267.189,44.729,266.62z M47.668,250.332c0,1.432-1.236,2.593-2.763,2.593c-1.524,0-2.762-1.161-2.762-2.593
	c0-1.432,1.237-2.593,2.762-2.593C46.432,247.739,47.668,248.9,47.668,250.332z M56.754,258.511c0,0.688-0.563,1.244-1.256,1.244
	s-1.254-0.557-1.254-1.244c0-0.687,0.561-1.243,1.254-1.243S56.754,257.824,56.754,258.511z M50.233,257.832
	c0,0.688-0.596,1.246-1.329,1.246c-0.734,0-1.328-0.558-1.328-1.246c0-0.689,0.594-1.248,1.328-1.248
	C49.638,256.584,50.233,257.143,50.233,257.832z M46.645,256.593c0,0.901-0.777,1.633-1.737,1.633c-0.961,0-1.74-0.731-1.74-1.633
	s0.779-1.632,1.74-1.632C45.867,254.96,46.645,255.691,46.645,256.593z M54.027,260.113c0,0.593-0.514,1.074-1.145,1.074
	c-0.633,0-1.145-0.481-1.145-1.074c0-0.595,0.512-1.076,1.145-1.076C53.514,259.037,54.027,259.519,54.027,260.113z M36.889,255.006
	c0,1.36-1.084,2.464-2.421,2.464c-1.338,0-2.422-1.104-2.422-2.464c0-1.36,1.084-2.463,2.422-2.463
	C35.805,252.543,36.889,253.646,36.889,255.006z"/>
<path  d="M29.942,283c-2.273,0-3.842-0.712-4.915-1.605
	c-2.165-1.802-2.596-4.717-1.941-5.934c0.641-1.19,0.981-4.35,1.047-5.944c-4.485-0.795-5.547-1.181-6.083-1.685
	c-1.171-1.097,0.107-2.542,0.527-3.017c0.248-0.28,0.531-0.571,0.821-0.858c-1.811-0.289-3.766-0.936-3.766-2.381
	c0-0.719,0.495-1.402,1.314-2.536c0.486-0.671,1.7-2.35,1.807-3.096c-5.879-0.689-9.031-1.834-10.184-3.687
	c-0.993-1.594-0.255-3.239,0.1-4.029l0.152-0.338l0.318-0.214c14.177-9.568,8.986-17.182,8.932-17.258l2.312-1.454
	c0.28,0.393,6.633,9.678-9.289,20.607c-0.275,0.686-0.305,1.073-0.122,1.369c0.384,0.615,2.032,1.757,8.761,2.483l0.353,0.038
	l0.291,0.192c2.588,1.715,0.262,4.932-1.128,6.853c-0.139,0.192-0.3,0.415-0.445,0.623c1.056,0.246,2.856,0.437,3.561,0.446
	l0.912,0.016l0.388,0.801c0.386,0.875-0.13,1.358-1.26,2.419c-0.341,0.32-0.96,0.9-1.44,1.403c0.77,0.188,2.021,0.444,4.033,0.797
	c0.797,0.139,0.861,0.15,1.037,0.221l0.553,0.223l0.218,0.548c0.322,0.829-0.084,6.497-1.237,8.637
	c-0.083,0.339,0.163,2.059,1.592,3.019c1.51,1.012,5.397,1.86,14.48-3.823l0.085-0.05c10.233-5.453,19.958,3.396,20.057,3.485
	l-1.956,1.858c-0.02-0.019-2.155-1.969-5.325-3.295c-4.065-1.701-7.888-1.635-11.36,0.201C37.188,281.755,32.948,283,29.942,283
	L29.942,283z"/>
</svg>
