<?xml version="1.0" encoding="utf-8"?>
<!-- Generator: Adobe Illustrator 16.0.0, SVG Export Plug-In . SVG Version: 6.00 Build 0)  -->
<!DOCTYPE svg PUBLIC "-//W3C//DTD SVG 1.1//EN" "http://www.w3.org/Graphics/SVG/1.1/DTD/svg11.dtd">
<svg version="1.1" id="Слой_1" xmlns="http://www.w3.org/2000/svg" xmlns:xlink="http://www.w3.org/1999/xlink" x="0px" y="0px"
	 width="19.935px" height="31.875px" viewBox="25.032 12.062 19.935 31.875" enable-background="new 25.032 12.062 19.935 31.875"
	 xml:space="preserve">
<path d="M39.832,12.062h-9.664c-2.833,0-5.136,2.303-5.136,5.135v15.129c0,1.647,1.34,2.989,2.987,2.989h3.84v7.783
	c0,0.465,0.376,0.84,0.84,0.84h4.6c0.465,0,0.84-0.375,0.84-0.84v-7.783h3.841c1.647,0,2.987-1.341,2.987-2.989V17.197
	C44.968,14.365,42.664,12.062,39.832,12.062z M36.459,42.258h-2.92v-2.92h2.92V42.258z M36.459,37.658h-2.92v-4.744h2.92V37.658z
	 M43.288,32.326c0,0.722-0.587,1.309-1.308,1.309h-3.84v-0.72h1.576c0.464,0,0.84-0.376,0.84-0.84c0-0.464-0.376-0.84-0.84-0.84
	h-9.434c-0.464,0-0.84,0.376-0.84,0.84c0,0.463,0.375,0.84,0.84,0.84h1.576v0.72h-3.84c-0.721,0-1.307-0.587-1.307-1.309V17.197
	c0-1.905,1.55-3.456,3.457-3.456h9.664c1.904,0,3.456,1.55,3.456,3.456V32.326z M40.837,15.458H29.163
	c-0.464,0-0.84,0.376-0.84,0.84v9.394c0,0.463,0.375,0.84,0.84,0.84h11.674c0.464,0,0.84-0.376,0.84-0.84v-9.394
	C41.677,15.834,41.301,15.458,40.837,15.458z M39.997,24.852h-9.994v-7.714h9.994V24.852z M35,41.671
	c0.482,0,0.874-0.391,0.874-0.873c0-0.483-0.391-0.873-0.874-0.873c-0.483,0-0.873,0.39-0.873,0.873
	C34.126,41.28,34.517,41.671,35,41.671z M40.277,28.043h-1.715c-0.464,0-0.84,0.376-0.84,0.84c0,0.463,0.376,0.84,0.84,0.84h1.715
	c0.463,0,0.84-0.376,0.84-0.84C41.117,28.42,40.74,28.043,40.277,28.043z M35.855,28.043h-1.714c-0.464,0-0.84,0.376-0.84,0.84
	c0,0.463,0.376,0.84,0.84,0.84h1.714c0.465,0,0.84-0.376,0.84-0.84C36.695,28.42,36.32,28.043,35.855,28.043z M31.438,28.043h-1.714
	c-0.464,0-0.84,0.376-0.84,0.84c0,0.463,0.375,0.84,0.84,0.84h1.714c0.463,0,0.84-0.376,0.84-0.84
	C32.277,28.42,31.901,28.043,31.438,28.043z M34.999,24.371c1.572,0,2.849-1.277,2.849-2.848c0-1.761-2.079-3.518-2.316-3.713
	c-0.31-0.254-0.756-0.254-1.065,0c-0.237,0.195-2.315,1.952-2.315,3.713C32.15,23.093,33.428,24.371,34.999,24.371z M34.999,19.603
	c0.583,0.598,1.169,1.393,1.169,1.92c0,0.644-0.525,1.168-1.169,1.168s-1.168-0.524-1.168-1.168
	C33.83,20.991,34.41,20.205,34.999,19.603z"/>
</svg>
