<?xml version="1.0" encoding="iso-8859-1"?>
<!-- Generator: Adobe Illustrator 18.1.1, SVG Export Plug-In . SVG Version: 6.00 Build 0)  -->
<svg version="1.1" id="Capa_1" xmlns="http://www.w3.org/2000/svg" xmlns:xlink="http://www.w3.org/1999/xlink" x="0px" y="0px"
	 viewBox="0 0 43.951 43.951" style="enable-background:new 0 0 43.951 43.951;" xml:space="preserve">
<g>
	<path d="M38.353,12.606V8.859c0-3.387-3.008-6.133-6.719-6.133h-2.615V0H15.023v2.727h-1.866c-3.711,0-7.279,2.746-7.279,6.133
		v3.747H3.92v7.668h1.958V33.39c0,2.169,1.237,4.071,3.099,5.161v5.4h5.113v-4.429h17.282v4.429h5.113v-6.326
		c1.154-1.103,1.867-2.592,1.867-4.235V20.274h1.679v-7.668H38.353z M18.569,35.434H11.29v-3.917h7.279V35.434z M13.998,14.723
		l-0.627,0.846l4.14,2.557l7.392,8.281H9.378V7.156h25.196v19.25h-8.227l-5.619-6.296l1.525,0.943l0.627-0.85L13.998,14.723z
		 M26.501,31.517h7.277v3.917h-7.277V31.517z"/>
	<g>
	</g>
	<g>
	</g>
	<g>
	</g>
	<g>
	</g>
	<g>
	</g>
	<g>
	</g>
	<g>
	</g>
	<g>
	</g>
	<g>
	</g>
	<g>
	</g>
	<g>
	</g>
	<g>
	</g>
	<g>
	</g>
	<g>
	</g>
	<g>
	</g>
</g>
<g>
</g>
<g>
</g>
<g>
</g>
<g>
</g>
<g>
</g>
<g>
</g>
<g>
</g>
<g>
</g>
<g>
</g>
<g>
</g>
<g>
</g>
<g>
</g>
<g>
</g>
<g>
</g>
<g>
</g>
</svg>
