<svg height='300px' width='300px'  fill="#000000" xmlns="http://www.w3.org/2000/svg" xmlns:xlink="http://www.w3.org/1999/xlink" version="1.1" x="0px" y="0px" viewBox="0 0 100 100" enable-background="new 0 0 100 100" xml:space="preserve"><g><path fill="#fff" d="M36.357,95h27.286c14.632,0,26.494,0.037,26.494-14.597c0-10.953-6.65-20.346-16.132-24.38   c0.045,0.089,0.096,0.173,0.139,0.265c0.564,1.209,0.93,2.468,1.095,3.691c0.41,0.115,0.814,0.272,1.205,0.48   c2.905,1.555,4.001,5.169,2.445,8.075c-1.555,2.904-5.169,3.999-8.074,2.445c-2.906-1.555-4-5.171-2.445-8.074   c0.872-1.629,2.391-2.688,4.068-3.031c-0.361-1.837-1.297-3.846-2.789-5.275c-1.161-0.271-2.352-0.467-3.567-0.577   c-0.105,4.831-7.265,8.729-16.081,8.729c-8.818,0-15.976-3.897-16.081-8.729c-0.854,0.078-1.695,0.197-2.523,0.354   c-1.825,1.456-3.107,3.54-3.459,5.234c0.653,0.367,1.164,0.97,1.449,1.711c2.482,1.088,4.685,3.531,6.382,7.081   c0.25,0.524,0.25,1.122,0.012,1.645c1.051,2.632,1.653,5.51,1.653,7.93c0,3.831-0.167,6.231-3.38,6.869   c-0.307,0.301-0.716,0.47-1.148,0.47h-2.468c-0.911,0-1.653-0.742-1.653-1.654V83.63v-0.005c0.021-0.894,0.756-1.616,1.653-1.616   h2.468c0.239,0,0.474,0.053,0.692,0.154c0.584-0.123,0.682-0.29,0.736-0.384c0.309-0.532,0.371-1.849,0.371-3.802   c0-2.11-0.538-4.638-1.478-6.967c-0.421-0.186-0.765-0.517-0.963-0.931c-1.618-3.387-3.809-5.489-5.714-5.489   c-1.946,0-4.244,2.27-5.854,5.783c-0.219,0.479-0.627,0.847-1.121,1.021c-0.86,2.252-1.333,4.58-1.333,6.582   c0,1.531,0.031,3.215,0.402,3.81c0.056,0.092,0.171,0.274,0.831,0.396c0.229-0.114,0.482-0.175,0.742-0.175h2.471   c0.878,0,1.599,0.689,1.649,1.556l0.004,0.01v0.088c0,0.912-0.742,1.654-1.653,1.654h-2.471c-0.406,0-0.796-0.153-1.1-0.426   c-0.888-0.147-2.066-0.497-2.791-1.66c-0.688-1.106-0.814-2.637-0.814-5.253c0-2.391,0.565-5.139,1.593-7.763   c-0.173-0.478-0.153-0.997,0.059-1.457c1.018-2.226,2.305-4.121,3.721-5.485c0.826-0.798,1.713-1.421,2.64-1.858   c0.301-0.845,0.903-1.526,1.665-1.895c0.174-1.233,0.657-2.518,1.384-3.738C16.784,59.675,9.864,69.23,9.864,80.403   C9.864,95.037,21.726,95,36.357,95z"></path><path  fill="#fff" d="M29.463,30.11c0.013,0.19,0.03,0.379,0.049,0.58C30.827,45.567,39.635,56.786,50,56.786   c10.366,0,19.173-11.219,20.487-26.094l0.045-0.545c0.092-0.619,0.153-1.257,0.194-1.951c0.025-0.45,0.043-0.901,0.043-1.358   c0-1.103-0.08-2.215-0.237-3.309C69.006,12.965,60.178,5,50,5c-10.178,0-19.006,7.965-20.533,18.528   c-0.157,1.08-0.237,2.194-0.237,3.31c0,0.456,0.018,0.907,0.042,1.36C29.314,28.9,29.378,29.538,29.463,30.11z"></path><circle  fill="#fff" cx="73.629" cy="65.721" r="2.983"></circle></g></svg>