<svg height="512pt" viewBox="0 -24 512 512" width="512pt" xmlns="http://www.w3.org/2000/svg"><path d="m161.285156 0h-59.234375c-22.632812 0-41.042969 18.414062-41.042969 41.046875v381.683594c0 22.628906 18.410157 41.042969 41.042969 41.042969h59.234375c22.632813 0 41.042969-18.414063 41.042969-41.042969v-381.683594c0-22.632813-18.410156-41.046875-41.042969-41.046875zm0 0"/><path d="m461.347656 43.757812h-229.019531v376.261719h229.019531c27.929688 0 50.652344-22.722656 50.652344-50.65625v-274.953125c0-27.929687-22.722656-50.652344-50.652344-50.652344zm-159.140625 323.277344h-24.089843c-8.28125 0-15-6.71875-15-15 0-8.285156 6.71875-15 15-15h24.089843c8.28125 0 15 6.714844 15 15 0 8.28125-6.71875 15-15 15zm0-47.957031h-24.089843c-8.28125 0-15-6.714844-15-15s6.71875-15 15-15h24.089843c8.28125 0 15 6.714844 15 15s-6.71875 15-15 15zm0-48.355469h-24.089843c-8.28125 0-15-6.71875-15-15 0-8.285156 6.71875-15 15-15h24.089843c8.28125 0 15 6.714844 15 15 0 8.28125-6.71875 15-15 15zm82 96.183594h-24.085937c-8.285156 0-15-6.714844-15-15s6.714844-15 15-15h24.085937c8.285157 0 15 6.714844 15 15s-6.714843 15-15 15zm0-47.957031h-24.085937c-8.285156 0-15-6.714844-15-15 0-8.285157 6.714844-15 15-15h24.085937c8.285157 0 15 6.714843 15 15 0 8.285156-6.714843 15-15 15zm0-48.355469h-24.085937c-8.285156 0-15-6.714844-15-15s6.714844-15 15-15h24.085937c8.285157 0 15 6.714844 15 15s-6.714843 15-15 15zm82.003907 96.3125h-24.085938c-8.285156 0-15-6.714844-15-15s6.714844-15 15-15h24.085938c8.285156 0 15 6.714844 15 15s-6.714844 15-15 15zm0-47.957031h-24.085938c-8.285156 0-15-6.714844-15-15 0-8.285157 6.714844-15 15-15h24.085938c8.285156 0 15 6.714843 15 15 0 8.285156-6.714844 15-15 15zm0-48.355469h-24.085938c-8.285156 0-15-6.714844-15-15s6.714844-15 15-15h24.085938c8.285156 0 15 6.714844 15 15s-6.714844 15-15 15zm15-76.199219c0 13.089844-10.648438 23.742188-23.738282 23.742188h-170.613281c-13.089844 0-23.742187-10.652344-23.742187-23.742188v-68.972656c0-13.09375 10.652343-23.742187 23.742187-23.742187h170.613281c13.089844 0 23.738282 10.648437 23.738282 23.742187zm0 0"/><path d="m293.117188 131.679688h158.097656v56.457031h-158.097656zm0 0"/><path d="m31.007812 47.722656c-18.203124 7.6875-31.007812 25.71875-31.007812 46.6875v274.953125c0 20.96875 12.804688 39 31.007812 46.6875zm0 0"/></svg>