<svg height='300px' width='300px'  fill="#000000" xmlns="http://www.w3.org/2000/svg" xmlns:xlink="http://www.w3.org/1999/xlink" version="1.1" x="0px" y="0px" viewBox="0 0 100 100" enable-background="new 0 0 100 100" xml:space="preserve"><path d="M86.562,46.67c-0.71-2.468-1.394-4.494-1.989-5.825c-1.774-3.969-5.799-9.603-10.341-13.492  c7.552-0.998,14.083-3.799,16.766-7.401c2.426-3.255,1.766-7.924-1.471-10.406c-1.342-1.027-3.011-1.572-4.703-1.537c0,0,0,0,0,0  c-2.059,0.043-3.984,0.911-5.369,2.403c-0.469,0.277-1.415,0.694-2.728,1.1C72.192,4.383,60.02,3.308,59.401,3.259  c-5.95-0.288-10.48,1.044-13.898,2.993c-0.313-2.383-2.164-4.591-4.982-5.774C37-0.998,32.896,1.375,32.44,1.651  c-0.304,0.184-0.565,0.43-0.767,0.723c-0.153,0.223-2.471,3.624-4.488,8.184c-0.596-0.08-1.211-0.157-1.859-0.229  c-3.442-0.384-8.955-0.611-9.01-0.613c-0.131-0.007-0.308-0.009-0.485-0.006l0,0c-3.938,0.082-7.151,3.239-7.316,7.187  c-0.093,2.242,0.817,4.292,2.325,5.732c-0.722,0.487-1.369,1.098-1.898,1.831c-1.181,1.636-1.65,3.634-1.32,5.625  c0.606,3.653,3.853,6.349,7.553,6.272c0.358-0.007,0.719-0.041,1.073-0.1c1.147-0.189,2.979-0.474,4.739-0.718  c-0.211,0.492-0.435,1-0.678,1.541c-1.644,3.66-3.895,8.672-3.989,15.585c-0.079,5.886,0.712,13.179,6.218,20.913  c-0.004,0.014-0.01,0.027-0.014,0.041c-0.574,2.105-0.574,5.77-0.002,10.895c0.384,3.441,1.378,8.869,1.388,8.923  c0.619,3.561,3.86,6.223,7.53,6.146c0.399-0.008,0.8-0.049,1.194-0.121c1.971-0.36,3.684-1.466,4.823-3.114  c1.139-1.648,1.568-3.641,1.208-5.611c-0.145-0.802-0.345-1.949-0.546-3.167c11.522,7.191,24.79,10.977,34.576,12.138  c1.891,0.225,3.616,0.322,5.193,0.289c4.235-0.089,7.387-1.117,9.727-3.134c4.009-3.459,4.701-9.136,4.849-14.232  c0.255-8.79-3.018-25.895-5.871-35.847C86.584,46.745,86.575,46.707,86.562,46.67z M76.692,37.415  c-1.498-0.424-3.128-0.692-4.974-0.989l-1.172-0.19c-3.78-0.622-7.042-1.309-8.434-3.16c-0.591-0.934-0.726-1.818-0.742-2.607  c-0.015-0.733,0.123-0.989,0.738-1.368c0.522-0.322,1.597-0.8,3.643-1.097c0.072,0.028,0.139,0.064,0.214,0.085  C69.157,28.997,73.503,33.116,76.692,37.415z M59.074,8.248c2.537,0.212,8.716,1.388,12.063,4.362  c-0.723,0.07-1.477,0.119-2.263,0.136C47.653,13.19,46.286,26.664,46.372,30.784c0.01,0.484,0.059,0.948,0.104,1.414  c-4.708-3.273-8.287-7.141-5.825-12.993c0.33-0.785,0.659-1.53,0.984-2.254C43.408,13.693,48.169,7.714,59.074,8.248z   M15.937,14.708c0.059-0.001,0.118,0,0.177,0.003c0.222,0.009,5.466,0.23,8.659,0.587c0.213,0.024,0.412,0.048,0.615,0.072  c-0.41,1.349-0.749,2.73-0.958,4.112l-0.091,0.605c-0.357,0.027-0.705,0.051-1.076,0.084c-3.053-0.282-7.309-0.462-7.356-0.464  c-1.379-0.058-2.451-1.222-2.394-2.602C13.567,15.784,14.636,14.735,15.937,14.708z M15.432,31.323  c-0.121,0.02-0.241,0.031-0.36,0.033c-1.222,0.026-2.31-0.849-2.516-2.091c-0.226-1.362,0.693-2.661,2.057-2.875  c0.219-0.037,5.398-0.893,8.596-1.197c0.008-0.001,0.015-0.001,0.023-0.002c0.106,0.011,0.214,0.021,0.319,0.032  c-0.311,1.95-0.603,3.6-0.924,5.06C19.59,30.636,15.478,31.315,15.432,31.323z M21.321,52.731c0.08-5.877,2.004-10.161,3.55-13.603  c0.374-0.833,0.722-1.609,1.016-2.336c1.58-3.911,2.238-8.274,3.327-15.504l0.16-1.06c0.927-6.146,4.936-12.725,6.101-14.536  c0.999-0.486,2.409-0.898,3.112-0.602c1.596,0.669,2.003,1.671,1.964,1.941c-0.089,0.596-1.038,2.617-1.876,4.4  c-0.58,1.235-1.216,2.593-1.874,4.079c-0.462,0.93-0.713,1.607-0.805,1.875c-4.661,11.294,5.48,17.659,10.364,20.722  c0.649,0.407,1.21,0.76,1.626,1.052c0.418,5.066-3.01,8.614-8.421,13.671c-5.085,4.753-11.156,10.438-11.817,19.339  C22.088,65.079,21.244,58.463,21.321,52.731z M33.748,91.634c0.248,1.358-0.652,2.661-2.01,2.909  c-0.134,0.024-0.268,0.038-0.401,0.041c-1.207,0.025-2.295-0.825-2.508-2.051c-0.04-0.218-0.98-5.383-1.336-8.575  c-0.234-2.096-0.343-3.734-0.38-5.011c0.873,0.875,1.808,1.752,2.824,2.631c0.833,0.72,1.687,1.415,2.557,2.089  C32.853,86.714,33.739,91.584,33.748,91.634z M87.467,82.485c-0.163,5.605-1.124,8.871-3.118,10.591  c-2.043,1.764-5.66,2.308-11.063,1.667c-14.426-1.713-30.158-8.364-40.079-16.948c-0.033-0.028-0.06-0.056-0.093-0.084  c-2.02-10.083,3.746-15.508,9.865-21.228c6.065-5.67,12.917-12.087,8.755-22.891c-0.248-1.367-0.342-1.878-0.364-2.912  c-0.098-4.691,2.059-12.609,17.608-12.935c7.767-0.163,13.234-2.795,14.002-3.768c0.486-0.617,1.212-0.952,1.948-0.968  c0.544-0.011,1.094,0.152,1.556,0.506c1.085,0.832,1.32,2.355,0.503,3.452c-2.009,2.698-9.257,5.596-17.904,5.778  c-8.541,0.179-12.819,2.814-12.714,7.831c0.021,0.999,0.131,2.173,0.674,3.637c1.965,5.293,8.24,6.226,12.689,6.958l1.19,0.193  c5.886,0.947,7.723,1.254,10.936,7.039C84.477,57.638,87.715,73.984,87.467,82.485z"></path></svg>