<svg height="448pt" viewBox="-16 0 448 448.00002" width="448pt" xmlns="http://www.w3.org/2000/svg"><path d="m72 400h-24v48h24c13.253906 0 24-10.746094 24-24s-10.746094-24-24-24zm0 0"/><path d="m399.519531 415.601562c-10.425781 10.566407-24.675781 16.480469-39.519531 16.398438h-248.800781c1.066406-5.28125 1.066406-10.71875 0-16h248.800781c11.726562-.007812 22.859375-5.15625 30.464844-14.082031 7.601562-8.929688 10.914062-20.738281 9.054687-32.316407-4.433593-19.304687-21.398437-33.140624-41.199219-33.601562h-16.082031l-.878906-16h16.960937c27.683594.539062 51.332032 20.105469 57.039063 47.199219 2.84375 17.746093-3.054687 35.769531-15.839844 48.402343zm0 0"/><path d="m32 400v16h-24c-4.417969 0-8-3.582031-8-8s3.582031-8 8-8zm0 0"/><path d="m32 432v16h-24c-4.417969 0-8-3.582031-8-8s3.582031-8 8-8zm0 0"/><path d="m224 40h-32c-19 .019531-35.375 13.386719-39.199219 32h110.398438c-3.824219-18.613281-20.199219-31.980469-39.199219-32zm0 0"/><path d="m308.710938 184.464844-21.910157-78.863282c-2.894531-10.386718-12.339843-17.578124-23.121093-17.601562h-111.359376c-10.78125.023438-20.226562 7.214844-23.121093 17.601562l-21.910157 78.886719c-7.535156 27.160157-12.128906 55.054688-13.703124 83.199219l-4.664063 83.921875c-.121094 2.195313.667969 4.34375 2.179687 5.941406 1.515626 1.597657 3.617188 2.5 5.820313 2.496094h222.167969c2.199218.003906 4.304687-.898437 5.820312-2.5 1.511719-1.597656 2.300782-3.75 2.179688-5.945313l-4.691406-83.960937c-1.570313-28.136719-6.15625-56.019531-13.6875-83.175781zm-13.269532 12c-2.050781.566406-4.242187.296875-6.09375-.753906-1.847656-1.050782-3.203125-2.796876-3.761718-4.847657l-21.914063-78.863281c-1.183594-4.257812 1.3125-8.671875 5.570313-9.851562 4.261718-1.183594 8.671874 1.3125 9.855468 5.570312l21.910156 78.890625c1.175782 4.253906-1.316406 8.65625-5.566406 9.839844zm0 0"/><path d="m216 8c.015625-2.085938-.8125-4.085938-2.296875-5.550781-1.480469-1.570313-3.546875-2.45312525-5.703125-2.449219-4.417969 0-8 3.582031-8 8v16h16zm0 0"/><path d="m108.585938 120h-49.273438l38.558594 38.558594zm0 0"/><path d="m334.800781 125.761719c-2.734375-1.527344-5.632812-2.734375-8.640625-3.601563-4.578125-1.449218-9.355468-2.175781-14.160156-2.160156h-2.960938l2.402344 8.71875 2.078125 7.359375c.507813-.011719 1.015625.015625 1.519531.082031.242188-.011718.488282.015625.722657.078125h.160156c2.128906.234375 4.222656.71875 6.238281 1.441407.765625.246093 1.511719.539062 2.238282.878906.96875.347656 1.90625.773437 2.800781 1.28125.933593.4375 1.820312.972656 2.640625 1.601562.878906.636719 1.679687 1.199219 2.480468 1.839844 1.675782 1.355469 3.203126 2.882812 4.558594 4.558594.605469.738281 1.167969 1.515625 1.679688 2.320312.597656.839844 1.132812 1.722656 1.601562 2.640625 1.042969 1.78125 1.851563 3.691407 2.398438 5.679688.5625 1.773437.964844 3.59375 1.203125 5.441406.15625 1.351563.238281 2.714844.238281 4.078125v16c0 1.125-.082031 2.246094-.238281 3.359375.011719.242187-.015625.488281-.082031.71875-.082032 1.050781-.242188 2.09375-.480469 3.121094-.058594.359375-.164063.710937-.320313 1.039062-.21875.921875-.484375 1.828125-.800781 2.722657l-.238281.480468c-.335938 1.058594-.792969 2.078125-1.359375 3.039063-.457031.976562-.992188 1.914062-1.601563 2.800781-1.84375 2.808594-4.113281 5.316406-6.71875 7.4375l.558594 2.960938 2.5625 12.71875.398438 1.761718 6.320312-4.800781c1.300781-1.003906 2.53125-2.101563 3.679688-3.28125.910156-.796875 1.738281-1.679687 2.480468-2.636719.367188-.382812.714844-.78125 1.039063-1.203125.902343-1.058593 1.734375-2.183593 2.480469-3.359375 1.109374-1.503906 2.074218-3.109375 2.878906-4.800781.941406-1.8125 1.769531-3.683594 2.480468-5.597656.871094-2.3125 1.542969-4.695313 2-7.121094.246094-.890625.40625-1.800781.480469-2.71875.082031-.5625.160157-1.28125.242188-1.921875.078125-.640625.078125-1.277344.160156-1.917969.078125-.960937.078125-1.839843.078125-2.800781v-16c-.011719-17.636719-9.683594-33.851562-25.199219-42.238281zm0 0"/></svg>