<?xml version="1.0" encoding="utf-8"?>
<!-- Generator: Adobe Illustrator 16.0.0, SVG Export Plug-In . SVG Version: 6.00 Build 0)  -->
<!DOCTYPE svg PUBLIC "-//W3C//DTD SVG 1.1//EN" "http://www.w3.org/Graphics/SVG/1.1/DTD/svg11.dtd">
<svg version="1.1"
	 id="Слой_1" xmlns:sodipodi="http://sodipodi.sourceforge.net/DTD/sodipodi-0.dtd" xmlns:inkscape="http://www.inkscape.org/namespaces/inkscape" xmlns:cc="http://creativecommons.org/ns#" xmlns:dc="http://purl.org/dc/elements/1.1/" xmlns:svg="http://www.w3.org/2000/svg" xmlns:rdf="http://www.w3.org/1999/02/22-rdf-syntax-ns#"
	 xmlns="http://www.w3.org/2000/svg" xmlns:xlink="http://www.w3.org/1999/xlink" x="0px" y="0px" width="35px" height="29.735px"
	 viewBox="15.75 13.042 35 29.735" enable-background="new 15.75 13.042 35 29.735" xml:space="preserve">
<g transform="translate(0,-1020.3622)">
	<path d="M25.43,1033.597c-1.423-0.107-2.867,0.293-4.047,1.039c-0.015,0.018-0.04-0.018-0.055,0
		c-0.532,0.312-1.163,0.867-1.805,1.531c-0.04,0.033-0.076,0.07-0.109,0.109c-0.021,0.023-0.034,0.032-0.055,0.055
		c-4.782,5.11-4.824,13.358-0.055,18.539c0.016,0.038,0.034,0.074,0.055,0.109c2.534,2.243,6.429,1.965,8.641-0.547
		c0.464-0.527,0.863-1.121,1.094-1.805s0.228-1.469-0.055-2.242c-0.412-1.131-1.091-1.713-1.531-1.969
		c-0.22-0.128-0.37-0.15-0.383-0.164c-0.013-0.018,0.024,0.04,0-0.109c-0.049-0.303-0.026-0.258,0.219-0.547
		c0.147-0.173,0.404-0.409,0.602-0.766c0.34,0.079,0.74,0.122,1.148,0.273c0.468,0.173,0.933,0.376,1.203,0.602
		s0.328,0.375,0.328,0.547v14c-0.007,0.483,0.379,0.881,0.863,0.887c0.483,0.008,0.88-0.379,0.887-0.861c0-0.009,0-0.018,0-0.025
		v-14c0-0.8-0.469-1.43-0.984-1.859c-0.346-0.288-0.758-0.422-1.148-0.602c0.813-0.575,1.599-1.305,2.078-2.406
		c0.226-0.427,0.062-0.957-0.366-1.182c-0.19-0.101-0.41-0.127-0.619-0.076c-0.299,0.056-0.547,0.263-0.656,0.547
		c-0.696,1.601-1.798,2.24-2.68,2.242c-0.041-0.086-0.065-0.201-0.109-0.273c-0.197-0.327-0.435-0.613-0.602-0.82
		c-0.112-0.14-0.116-0.194-0.164-0.273c0.108,0.018,0.146,0.03,0.328,0.055c0.332,0.045,0.819,0.12,1.313-0.055
		c0.494-0.175,0.947-0.587,1.313-1.148c1.479-2.275,1.074-4.872-0.656-6.836C28.321,1034.314,26.871,1033.704,25.43,1033.597z
		 M41.07,1033.597c-1.441,0.108-2.891,0.718-3.992,1.969c-1.73,1.964-2.135,4.561-0.656,6.836c0.365,0.562,0.818,0.973,1.313,1.148
		s0.98,0.1,1.313,0.055c0.182-0.024,0.221-0.039,0.328-0.055c-0.048,0.079-0.052,0.133-0.164,0.273
		c-0.166,0.207-0.404,0.493-0.602,0.82c-0.044,0.073-0.068,0.188-0.109,0.273c-0.881-0.002-1.983-0.641-2.68-2.242
		c-0.154-0.422-0.604-0.658-1.039-0.547c-0.473,0.098-0.778,0.56-0.681,1.034c0.016,0.078,0.042,0.153,0.079,0.224
		c0.479,1.102,1.266,1.831,2.078,2.406c-0.391,0.179-0.803,0.313-1.148,0.602c-0.515,0.43-0.984,1.059-0.984,1.859v14
		c-0.007,0.483,0.379,0.881,0.863,0.887c0.483,0.008,0.88-0.379,0.887-0.861c0-0.009,0-0.018,0-0.025v-14
		c0-0.171,0.058-0.321,0.328-0.547s0.734-0.428,1.203-0.602c0.408-0.151,0.809-0.194,1.148-0.273
		c0.197,0.357,0.455,0.592,0.602,0.766c0.245,0.289,0.268,0.244,0.219,0.547c-0.024,0.15,0.014,0.097,0,0.109
		c-0.014,0.018-0.163,0.036-0.383,0.164c-0.439,0.255-1.119,0.838-1.531,1.969c-0.282,0.773-0.285,1.559-0.055,2.242
		s0.63,1.278,1.094,1.805c2.211,2.512,6.107,2.79,8.641,0.547c0.021-0.035,0.039-0.072,0.055-0.109
		c4.77-5.181,4.727-13.429-0.055-18.539c-0.042-0.045-0.067-0.065-0.109-0.109c-0.035-0.021-0.072-0.039-0.109-0.055
		c-0.631-0.648-1.227-1.225-1.75-1.531c-0.015-0.018-0.039,0.018-0.055,0C43.938,1033.89,42.493,1033.49,41.07,1033.597z
		 M25.266,1035.292c1.029,0.066,2.046,0.516,2.844,1.422c1.364,1.549,1.592,3.065,0.492,4.758c-0.21,0.323-0.334,0.346-0.438,0.383
		s-0.212,0.086-0.438,0.055c-0.225-0.03-0.513-0.13-0.93-0.109c-0.417,0.02-1.039,0.294-1.313,0.766
		c-0.268,0.46-0.258,1.07-0.109,1.477c0.149,0.407,0.354,0.69,0.547,0.93s0.352,0.404,0.438,0.547
		c0.069,0.115,0.101,0.137,0.109,0.164c0.002,0.007,0,0.052,0,0.055c-0.002,0.037-0.002,0.073,0,0.109
		c-0.043,0.172-0.172,0.289-0.438,0.602c-0.313,0.368-0.797,1.1-0.656,1.969c0.07,0.436,0.281,0.84,0.547,1.094
		c0.266,0.254,0.547,0.343,0.711,0.438c0.327,0.19,0.475,0.242,0.766,1.039c0.152,0.416,0.123,0.73,0,1.094s-0.338,0.78-0.711,1.203
		c-1.558,1.77-4.239,1.968-6.07,0.438c-4.1-4.454-4.142-11.647-0.109-16.078c0.04-0.033,0.076-0.07,0.109-0.109
		c0.627-0.67,1.43-1.303,1.641-1.422c0.018,0,0.037,0,0.055,0C23.192,1035.546,24.237,1035.226,25.266,1035.292z M41.234,1035.292
		c1.029-0.065,2.073,0.254,2.953,0.82c0.018,0,0.037,0,0.055,0c0.211,0.119,1.014,0.751,1.641,1.422
		c0.033,0.04,0.07,0.076,0.109,0.109c4.032,4.431,3.99,11.624-0.109,16.078c-1.832,1.531-4.513,1.332-6.07-0.438
		c-0.373-0.423-0.588-0.839-0.711-1.203s-0.152-0.678,0-1.094c0.291-0.797,0.438-0.849,0.766-1.039
		c0.164-0.095,0.445-0.184,0.711-0.438c0.266-0.253,0.477-0.658,0.547-1.094c0.141-0.869-0.344-1.601-0.656-1.969
		c-0.266-0.313-0.395-0.429-0.438-0.602c0.002-0.036,0.002-0.073,0-0.109c-0.002-0.018,0.023-0.075,0.109-0.219
		s0.245-0.308,0.438-0.547s0.398-0.523,0.547-0.93c0.148-0.406,0.158-1.017-0.109-1.477c-0.273-0.471-0.896-0.746-1.313-0.766
		c-0.416-0.019-0.705,0.08-0.93,0.109s-0.334-0.018-0.438-0.055s-0.228-0.06-0.438-0.383c-1.1-1.692-0.872-3.208,0.492-4.758
		C39.188,1035.807,40.205,1035.357,41.234,1035.292z"/>
</g>
</svg>
