<?xml version="1.0" encoding="utf-8"?>
<!-- Generator: Adobe Illustrator 16.0.0, SVG Export Plug-In . SVG Version: 6.00 Build 0)  -->
<!DOCTYPE svg PUBLIC "-//W3C//DTD SVG 1.1//EN" "http://www.w3.org/Graphics/SVG/1.1/DTD/svg11.dtd">
<svg version="1.1" id="Слой_1" xmlns="http://www.w3.org/2000/svg" xmlns:xlink="http://www.w3.org/1999/xlink" x="0px" y="0px"
	 width="154.429px" height="101.554px" viewBox="0 0 154.429 101.554" enable-background="new 0 0 154.429 101.554"
	 xml:space="preserve">
<g>
	<path fill-rule="evenodd" clip-rule="evenodd" fill="#1962AB" d="M78.46,101.546c-3.781,0-6.441,0.023-9.099-0.009
		c-1.708-0.02-3.373-0.49-5.085-0.541c-2.297-0.067-4.54-0.604-6.794-0.969c-2.436-0.393-4.881-0.821-7.258-1.573
		c-1.02-0.322-2.09-0.553-3.142-0.797c-1.74-0.401-3.392-1.07-5.103-1.536c-1.283-0.349-2.472-0.918-3.721-1.344
		c-1.496-0.507-2.935-1.19-4.379-1.84c-0.919-0.415-1.843-0.821-2.74-1.291c-1.571-0.821-3.157-1.609-4.689-2.513
		c-2.075-1.223-4.118-2.485-6.084-3.875c-2.129-1.505-4.181-3.121-6.058-4.917c-3.1-2.968-5.977-6.137-8.253-9.821
		c-1.766-2.858-3.235-5.831-4.257-9.035c-0.398-1.245-0.564-2.568-1.018-3.76c-0.739-1.945-0.352-3.895-0.435-5.837
		c-0.083-1.931-0.065-3.868-0.004-5.8c0.057-1.789,0.723-3.465,1.204-5.162c0.312-1.101,0.718-2.191,1.148-3.267
		c1.241-3.1,2.894-5.954,4.806-8.678c1.892-2.696,4.114-5.106,6.491-7.356c2.061-1.949,4.313-3.685,6.619-5.355
		c3.083-2.231,6.386-4.083,9.725-5.869c1.537-0.822,3.151-1.522,4.775-2.19c1.861-0.765,3.736-1.49,5.611-2.216
		c1.433-0.554,2.881-1.129,4.375-1.443c1.439-0.304,2.771-0.983,4.243-1.116c0.612-0.056,1.147-0.351,1.733-0.485
		c2.748-0.632,5.518-1.122,8.301-1.576c2.523-0.412,5.084-0.484,7.589-0.932c3.89-0.695,7.793-0.282,11.69-0.385
		c2.703-0.071,5.42-0.132,8.11,0.163c1.006,0.111,2.034,0.227,3.025,0.435c0.932,0.196,1.872,0.174,2.798,0.325
		c2.587,0.421,5.208,0.637,7.751,1.336c0.967,0.267,1.989,0.233,2.971,0.557c1.567,0.517,3.175,0.929,4.786,1.294
		c1.999,0.453,3.896,1.219,5.845,1.82c1.143,0.352,2.246,0.834,3.354,1.288c1.87,0.765,3.751,1.508,5.561,2.409
		c1.457,0.727,2.915,1.458,4.334,2.256c1.358,0.765,2.665,1.623,3.998,2.432c2.268,1.375,4.4,2.947,6.44,4.628
		c2.657,2.191,5.101,4.614,7.347,7.24c1.476,1.726,2.78,3.571,3.995,5.473c0.795,1.244,1.447,2.587,2.098,3.924
		c0.887,1.821,1.637,3.704,2.14,5.648c0.601,2.327,1.398,4.612,1.189,7.125c-0.198,2.401-0.069,4.831-0.041,7.248
		c0.009,0.821-0.188,1.569-0.539,2.281c-0.165,0.333-0.313,0.665-0.319,1.025c-0.018,0.866-0.338,1.655-0.622,2.441
		c-0.39,1.081-0.704,2.188-1.184,3.242c-0.676,1.49-1.386,2.965-2.189,4.386c-2.089,3.69-4.744,6.961-7.739,9.94
		c-1.15,1.146-2.393,2.214-3.648,3.265c-1.609,1.346-3.258,2.631-4.979,3.817c-2.596,1.788-5.31,3.391-8.115,4.836
		c-2.411,1.245-4.871,2.373-7.397,3.372c-1.856,0.733-3.707,1.487-5.604,2.095c-2.311,0.74-4.638,1.437-7.009,1.979
		c-0.858,0.194-1.758,0.304-2.561,0.722c-0.063,0.032-0.135,0.065-0.204,0.067c-1.775,0.067-3.438,0.748-5.182,0.957
		c-3.039,0.368-6.076,0.776-9.11,1.163C84.403,101.701,80.871,101.4,78.46,101.546z M151.456,51.153
		c0.097-3.777-0.676-7.089-1.629-10.352c-0.635-2.173-1.674-4.205-2.788-6.17c-1.56-2.75-3.4-5.303-5.57-7.624
		c-1.926-2.061-3.916-4.047-6.11-5.819c-2.686-2.168-5.562-4.063-8.53-5.815c-1.258-0.742-2.541-1.451-3.846-2.109
		c-1.396-0.704-2.812-1.376-4.254-1.98c-1.947-0.815-3.91-1.609-5.902-2.309c-2.134-0.749-4.283-1.489-6.476-2.024
		c-1.654-0.404-3.31-0.837-4.971-1.219c-1.925-0.442-3.87-0.783-5.802-1.151c-2.409-0.458-4.863-0.705-7.302-0.978
		c-2.962-0.331-5.958-0.284-8.937-0.486c-2.131-0.146-4.277,0.03-6.418,0.149c-3.226,0.18-6.464,0.202-9.656,0.75
		c-1.877,0.321-3.788,0.369-5.653,0.822c-1.684,0.409-3.397,0.715-5.098,1.051c-1.634,0.323-3.209,0.841-4.819,1.23
		c-1.316,0.319-2.624,0.75-3.923,1.175c-1.97,0.644-3.942,1.297-5.825,2.136c-1.729,0.771-3.477,1.508-5.18,2.348
		c-1.88,0.927-3.76,1.859-5.542,2.946c-2.685,1.638-5.316,3.373-7.767,5.362c-3.27,2.653-6.307,5.541-8.829,8.921
		c-2.282,3.057-4.165,6.335-5.483,9.947c-1.253,3.434-1.89,6.954-2.026,10.587c-0.042,1.114,0.038,2.221,0.171,3.321
		c0.156,1.29,0.268,2.601,0.595,3.852c0.573,2.186,1.289,4.323,2.224,6.399c1.053,2.338,2.314,4.544,3.795,6.609
		c2.595,3.617,5.682,6.787,9.135,9.601c1.829,1.491,3.752,2.85,5.711,4.159c1.92,1.285,3.931,2.428,5.981,3.478
		c2.718,1.391,5.482,2.699,8.357,3.752c1.353,0.495,2.676,1.081,4.042,1.537c1.55,0.517,3.126,0.964,4.704,1.39
		c1.324,0.357,2.63,0.853,3.964,1.073c1.999,0.332,3.965,0.818,5.954,1.187c2.71,0.504,5.445,0.811,8.166,1.136
		c3.292,0.392,6.634,0.406,9.956,0.502c2.143,0.063,4.286,0.03,6.432-0.146c2.4-0.197,4.812-0.142,7.214-0.455
		c3.658-0.476,7.314-0.939,10.919-1.729c2.044-0.448,4.102-0.876,6.098-1.489c1.402-0.432,2.822-0.818,4.219-1.273
		c2.01-0.656,3.999-1.374,5.951-2.159c2.692-1.085,5.305-2.359,7.872-3.729c2.912-1.553,5.694-3.286,8.363-5.233
		c2.284-1.665,4.422-3.477,6.443-5.446c1.939-1.888,3.751-3.893,5.308-6.094c1.397-1.977,2.608-4.078,3.661-6.277
		c0.922-1.924,1.697-3.905,2.137-5.959C151.036,56.014,151.681,53.461,151.456,51.153z"/>
	<path fill-rule="evenodd" clip-rule="evenodd" fill="#FEFEFF" d="M151.456,51.153c0.225,2.308-0.42,4.86-0.962,7.393
		c-0.439,2.054-1.215,4.036-2.137,5.959c-1.053,2.199-2.264,4.3-3.661,6.277c-1.557,2.202-3.368,4.206-5.308,6.094
		c-2.021,1.969-4.159,3.781-6.443,5.446c-2.669,1.947-5.451,3.681-8.363,5.233c-2.567,1.369-5.18,2.644-7.872,3.729
		c-1.952,0.785-3.941,1.503-5.951,2.159c-1.397,0.455-2.817,0.842-4.219,1.273c-1.996,0.613-4.053,1.041-6.098,1.489
		c-3.605,0.789-7.261,1.253-10.919,1.729c-2.403,0.313-4.814,0.258-7.214,0.455c-2.146,0.177-4.289,0.209-6.432,0.146
		c-3.322-0.096-6.664-0.11-9.956-0.502c-2.721-0.325-5.456-0.632-8.166-1.136c-1.988-0.368-3.955-0.854-5.954-1.187
		c-1.334-0.221-2.64-0.716-3.964-1.073c-1.578-0.426-3.154-0.873-4.704-1.39c-1.366-0.456-2.688-1.042-4.042-1.537
		c-2.875-1.053-5.639-2.361-8.357-3.752c-2.05-1.05-4.061-2.192-5.981-3.478c-1.959-1.309-3.882-2.668-5.711-4.159
		c-3.454-2.814-6.54-5.984-9.135-9.601c-1.481-2.064-2.742-4.271-3.795-6.609C5.176,62.037,4.46,59.9,3.887,57.714
		c-0.327-1.25-0.439-2.562-0.595-3.852c-0.133-1.1-0.213-2.208-0.171-3.321c0.137-3.633,0.773-7.153,2.026-10.587
		c1.318-3.611,3.202-6.89,5.483-9.947c2.522-3.38,5.56-6.268,8.829-8.921c2.451-1.989,5.082-3.725,7.767-5.362
		c1.781-1.086,3.662-2.019,5.542-2.946c1.703-0.84,3.451-1.577,5.18-2.348c1.883-0.839,3.855-1.492,5.825-2.136
		c1.299-0.424,2.607-0.855,3.923-1.175c1.61-0.39,3.185-0.908,4.819-1.23c1.7-0.336,3.414-0.642,5.098-1.051
		c1.865-0.453,3.775-0.5,5.653-0.822c3.192-0.547,6.431-0.57,9.656-0.75c2.141-0.119,4.287-0.294,6.418-0.149
		c2.979,0.203,5.975,0.155,8.937,0.486c2.438,0.273,4.893,0.52,7.302,0.978c1.933,0.368,3.877,0.709,5.802,1.151
		c1.662,0.382,3.317,0.814,4.971,1.219c2.193,0.536,4.342,1.275,6.476,2.024c1.992,0.7,3.955,1.493,5.902,2.309
		c1.442,0.604,2.858,1.276,4.254,1.98c1.305,0.658,2.588,1.367,3.846,2.109c2.969,1.752,5.845,3.647,8.53,5.815
		c2.194,1.772,4.185,3.758,6.11,5.819c2.17,2.321,4.011,4.874,5.57,7.624c1.114,1.965,2.153,3.997,2.788,6.17
		C150.78,44.064,151.553,47.376,151.456,51.153z M77.419,95.753c3.25-0.022,6.501,0.143,9.749-0.344
		c2.808-0.421,5.652-0.583,8.458-1.076c2.56-0.451,5.117-0.895,7.625-1.586c0.348-0.096,0.684-0.27,1.035-0.306
		c1.602-0.165,3.04-0.897,4.577-1.288c1.165-0.294,2.278-0.784,3.419-1.163c1.878-0.623,3.689-1.413,5.495-2.196
		c1.538-0.668,3.063-1.39,4.545-2.199c2.581-1.408,5.132-2.877,7.503-4.598c3.016-2.188,5.883-4.563,8.395-7.362
		c1.386-1.546,2.73-3.129,3.882-4.83c1.7-2.51,3.068-5.224,4.077-8.104c0.678-1.942,1.099-3.94,1.349-5.975
		c0.138-1.121,0.309-2.25,0.3-3.374c-0.02-2.848-0.326-5.662-1.115-8.42c-0.298-1.041-0.634-2.057-0.986-3.077
		c-0.333-0.962-0.735-1.897-1.194-2.781c-0.93-1.783-1.936-3.531-3.153-5.15c-0.896-1.191-1.764-2.412-2.79-3.482
		c-0.943-0.984-1.893-1.971-2.897-2.907c-2.354-2.192-4.88-4.13-7.534-5.934c-2.151-1.462-4.427-2.699-6.713-3.915
		c-2.143-1.14-4.38-2.093-6.632-3.013c-1.224-0.5-2.465-0.964-3.708-1.39c-1.218-0.418-2.461-0.809-3.699-1.186
		c-1.611-0.491-3.23-0.955-4.866-1.325c-1.875-0.423-3.729-0.948-5.657-1.168c-1.623-0.186-3.204-0.69-4.856-0.74
		c-0.573-0.018-1.145-0.152-1.714-0.247c-1.563-0.26-3.146-0.374-4.719-0.55c-1.745-0.196-3.52-0.146-5.283-0.153
		c-4.34-0.018-8.685-0.129-13.008,0.387c-2.606,0.31-5.215,0.602-7.806,1.009c-1.282,0.201-2.572,0.39-3.84,0.667
		c-1.951,0.427-3.899,0.881-5.821,1.418c-1.826,0.509-3.633,1.084-5.432,1.7c-2.188,0.748-4.335,1.575-6.459,2.479
		c-3.412,1.452-6.683,3.165-9.831,5.121c-4.086,2.54-7.828,5.492-11.146,8.996c-2.638,2.785-4.756,5.909-6.536,9.287
		c-1.08,2.047-1.92,4.175-2.44,6.44c-0.438,1.906-0.827,3.797-0.897,5.77c-0.125,3.504,0.146,6.96,1.159,10.311
		c0.696,2.302,1.651,4.522,2.857,6.621c0.95,1.652,1.917,3.309,3.131,4.768c1.689,2.034,3.41,4.045,5.429,5.79
		c1.458,1.26,2.925,2.506,4.461,3.665c2.271,1.711,4.705,3.176,7.176,4.579c1.991,1.131,4.049,2.127,6.149,3.033
		c1.809,0.78,3.619,1.56,5.49,2.189c1.301,0.436,2.58,0.938,3.909,1.296c1.369,0.369,2.726,0.778,4.096,1.143
		c2.145,0.568,4.301,1.054,6.479,1.444c2.205,0.397,4.412,0.765,6.65,0.982c2.201,0.214,4.394,0.595,6.601,0.717
		C72.92,95.851,75.173,95.753,77.419,95.753z"/>
	<path fill-rule="evenodd" clip-rule="evenodd" fill="#1962AB" d="M77.419,95.753c-2.247,0-4.5,0.098-6.739-0.027
		c-2.207-0.122-4.4-0.503-6.601-0.717c-2.238-0.218-4.446-0.585-6.65-0.982c-2.178-0.391-4.334-0.876-6.479-1.444
		c-1.371-0.364-2.728-0.773-4.096-1.143c-1.329-0.358-2.607-0.86-3.909-1.296c-1.871-0.63-3.682-1.409-5.49-2.189
		c-2.1-0.906-4.158-1.902-6.149-3.033c-2.472-1.403-4.906-2.868-7.176-4.579c-1.536-1.158-3.003-2.405-4.461-3.665
		c-2.019-1.745-3.739-3.756-5.429-5.79c-1.213-1.458-2.181-3.116-3.131-4.768c-1.206-2.099-2.161-4.319-2.857-6.621
		c-1.013-3.351-1.284-6.806-1.159-10.311c0.07-1.972,0.46-3.864,0.897-5.77c0.52-2.266,1.36-4.394,2.44-6.44
		c1.78-3.378,3.898-6.501,6.536-9.287c3.318-3.504,7.06-6.456,11.146-8.996c3.148-1.956,6.419-3.669,9.831-5.121
		c2.124-0.905,4.271-1.732,6.459-2.479c1.798-0.615,3.605-1.19,5.432-1.7c1.922-0.537,3.871-0.991,5.821-1.418
		c1.268-0.278,2.559-0.466,3.84-0.667c2.591-0.408,5.2-0.699,7.806-1.009c4.323-0.516,8.667-0.405,13.008-0.387
		c1.763,0.008,3.538-0.042,5.283,0.153c1.572,0.177,3.155,0.291,4.719,0.55c0.569,0.095,1.141,0.229,1.714,0.247
		c1.653,0.05,3.233,0.554,4.856,0.74c1.928,0.221,3.782,0.746,5.657,1.168c1.636,0.37,3.255,0.834,4.866,1.325
		c1.238,0.377,2.481,0.768,3.699,1.186c1.243,0.426,2.484,0.89,3.708,1.39c2.252,0.919,4.49,1.873,6.632,3.013
		c2.286,1.215,4.562,2.453,6.713,3.915c2.654,1.803,5.18,3.742,7.534,5.934c1.005,0.937,1.954,1.923,2.897,2.907
		c1.026,1.07,1.895,2.292,2.79,3.482c1.218,1.619,2.224,3.367,3.153,5.15c0.459,0.883,0.861,1.819,1.194,2.781
		c0.353,1.02,0.688,2.036,0.986,3.077c0.789,2.758,1.096,5.572,1.115,8.42c0.009,1.125-0.162,2.253-0.3,3.374
		c-0.25,2.035-0.671,4.033-1.349,5.975c-1.009,2.88-2.377,5.594-4.077,8.104c-1.151,1.701-2.496,3.284-3.882,4.83
		c-2.512,2.799-5.379,5.174-8.395,7.362c-2.371,1.721-4.922,3.19-7.503,4.598c-1.482,0.81-3.007,1.531-4.545,2.199
		c-1.805,0.783-3.617,1.573-5.495,2.196c-1.141,0.379-2.254,0.869-3.419,1.163c-1.537,0.391-2.976,1.123-4.577,1.288
		c-0.352,0.036-0.688,0.21-1.035,0.306c-2.508,0.691-5.065,1.135-7.625,1.586c-2.806,0.493-5.65,0.655-8.458,1.076
		C83.92,95.896,80.67,95.731,77.419,95.753z M77.596,8.848c-2.443-0.074-4.711,0.047-6.973,0.253
		c-2.785,0.253-5.585,0.357-8.346,0.856c-2.514,0.454-5.047,0.819-7.538,1.374c-1.479,0.33-2.969,0.65-4.424,1.089
		c-1.336,0.403-2.648,0.892-3.997,1.24c-1.196,0.308-2.349,0.747-3.486,1.182c-2.377,0.912-4.712,1.938-7.006,3.059
		c-2.424,1.183-4.77,2.492-7.025,3.961c-1.956,1.273-3.837,2.648-5.602,4.188c-3.246,2.832-6.205,5.895-8.432,9.625
		c-0.968,1.621-1.931,3.215-2.59,5.006c-0.664,1.802-1.309,3.591-1.589,5.5c-0.215,1.46-0.178,2.948-0.506,4.396
		c-0.124,0.544,0.32,1.057,0.231,1.55c-0.195,1.085,0.33,2.079,0.265,3.134c-0.043,0.682,0.186,1.312,0.371,1.962
		c0.167,0.581,0.449,1.125,0.566,1.711c0.452,2.281,1.575,4.282,2.716,6.244c0.888,1.528,1.947,2.959,3.062,4.356
		c1.894,2.371,4.013,4.499,6.333,6.423c2.483,2.059,5.162,3.846,7.949,5.487c3.057,1.799,6.242,3.318,9.512,4.654
		c2.2,0.897,4.472,1.631,6.745,2.327c1.979,0.605,3.967,1.185,6.004,1.611c2.38,0.499,4.753,1.015,7.153,1.429
		c4.483,0.774,9.014,1.008,13.537,1.306c3.718,0.245,7.429-0.168,11.143-0.348c3.219-0.156,6.379-0.717,9.55-1.175
		c1.992-0.287,3.969-0.786,5.942-1.25c3.15-0.74,6.226-1.69,9.293-2.701c2.475-0.815,4.87-1.821,7.218-2.926
		c2.94-1.382,5.79-2.933,8.5-4.745c2.674-1.788,5.223-3.729,7.538-5.955c2.455-2.363,4.662-4.946,6.413-7.885
		c1.006-1.689,1.987-3.405,2.619-5.27c0.478-1.408,0.897-2.835,1.225-4.301c0.725-3.261,0.838-6.509,0.199-9.772
		c-0.199-1.012-0.262-2.062-0.657-3.033c-0.437-1.07-0.704-2.194-1.168-3.261c-0.895-2.057-1.937-4.035-3.207-5.867
		c-1.345-1.938-2.854-3.75-4.527-5.436c-1.704-1.717-3.506-3.311-5.437-4.752c-2.296-1.711-4.692-3.266-7.206-4.653
		c-1.856-1.024-3.747-1.974-5.682-2.813c-1.939-0.84-3.879-1.693-5.897-2.358c-2.174-0.716-4.346-1.452-6.555-2.021
		c-1.743-0.449-3.519-0.824-5.284-1.211c-3.139-0.689-6.305-1.254-9.485-1.542C85.199,9.145,81.326,8.667,77.596,8.848z"/>
	<path fill-rule="evenodd" clip-rule="evenodd" fill="#FEFEFF" d="M77.596,8.848c3.73-0.181,7.603,0.297,11.466,0.647
		c3.181,0.288,6.346,0.854,9.485,1.542c1.765,0.387,3.541,0.762,5.284,1.211c2.209,0.569,4.381,1.306,6.555,2.021
		c2.018,0.665,3.958,1.518,5.897,2.358c1.935,0.839,3.825,1.789,5.682,2.813c2.514,1.387,4.91,2.942,7.206,4.653
		c1.931,1.441,3.732,3.035,5.437,4.752c1.673,1.685,3.183,3.498,4.527,5.436c1.271,1.833,2.313,3.81,3.207,5.867
		c0.464,1.067,0.731,2.191,1.168,3.261c0.396,0.971,0.458,2.021,0.657,3.033c0.639,3.263,0.525,6.511-0.199,9.772
		c-0.327,1.466-0.747,2.893-1.225,4.301c-0.632,1.865-1.613,3.581-2.619,5.27c-1.751,2.939-3.958,5.522-6.413,7.885
		c-2.315,2.227-4.864,4.167-7.538,5.955c-2.711,1.812-5.561,3.362-8.5,4.745c-2.348,1.104-4.743,2.11-7.218,2.926
		c-3.068,1.011-6.144,1.961-9.293,2.701c-1.973,0.464-3.95,0.963-5.942,1.25c-3.171,0.458-6.331,1.019-9.55,1.175
		c-3.714,0.18-7.424,0.593-11.143,0.348c-4.523-0.298-9.054-0.531-13.537-1.306c-2.399-0.414-4.772-0.93-7.153-1.429
		c-2.037-0.427-4.025-1.006-6.004-1.611c-2.273-0.696-4.545-1.43-6.745-2.327c-3.27-1.336-6.456-2.855-9.512-4.654
		c-2.787-1.641-5.465-3.428-7.949-5.487c-2.321-1.924-4.44-4.052-6.333-6.423c-1.115-1.397-2.174-2.829-3.062-4.356
		c-1.142-1.962-2.265-3.963-2.716-6.244c-0.117-0.587-0.399-1.13-0.566-1.711c-0.185-0.65-0.414-1.28-0.371-1.962
		c0.065-1.055-0.46-2.048-0.265-3.134c0.089-0.493-0.354-1.005-0.231-1.55c0.329-1.448,0.291-2.936,0.506-4.396
		c0.28-1.908,0.925-3.698,1.589-5.5c0.659-1.791,1.622-3.385,2.59-5.006c2.227-3.731,5.186-6.794,8.432-9.625
		c1.764-1.54,3.646-2.915,5.602-4.188c2.255-1.469,4.602-2.778,7.025-3.961c2.294-1.121,4.628-2.147,7.006-3.059
		c1.138-0.436,2.291-0.874,3.486-1.182c1.349-0.348,2.661-0.837,3.997-1.24c1.455-0.438,2.945-0.759,4.424-1.089
		c2.49-0.555,5.024-0.919,7.538-1.374c2.761-0.499,5.561-0.603,8.346-0.856C72.885,8.896,75.153,8.774,77.596,8.848z
		 M103.371,48.532c0.025,0,0.049,0,0.073,0c0,1.789,0.001,3.578,0,5.365c-0.001,0.979,0.027,1.006,1.024,0.999
		c0.628-0.004,1.26-0.038,1.885,0.003c0.652,0.042,0.901-0.182,0.891-0.863c-0.05-3.263-0.02-6.526-0.094-9.788
		c-0.065-2.842-0.997-5.348-3.277-7.185c-1.626-1.311-3.537-1.867-5.61-2.061c-3.223-0.301-5.87,0.826-8.096,3.062
		c-2.667,2.681-4.663,5.877-6.762,8.988c-1.388,2.056-2.708,4.157-4.045,6.248c-1.232,1.927-2.443,3.87-3.67,5.802
		c-1.641,2.583-3.294,5.156-4.931,7.742c-0.964,1.522-1.915,3.053-2.85,4.593c-0.289,0.477-0.613,0.528-0.923,0.081
		c-1.601-2.318-3.322-4.549-4.997-6.813c-2.58-3.487-5.135-6.996-7.708-10.488c-2.501-3.395-5.018-6.779-7.521-10.173
		c-1.587-2.152-3.163-4.312-4.742-6.469c-1.564-2.137-3.128-4.272-4.685-6.416c-0.218-0.3-0.496-0.49-0.851-0.463
		c-1.234,0.095-2.462-0.06-3.694-0.042c-0.191,0.002-0.405-0.03-0.525,0.164c-0.15,0.241,0.041,0.413,0.166,0.579
		c0.64,0.845,1.308,1.672,1.933,2.527c1.848,2.526,3.67,5.071,5.523,7.593c2.167,2.951,4.368,5.876,6.533,8.828
		c2.38,3.244,4.728,6.512,7.107,9.757c2.29,3.125,4.604,6.232,6.9,9.351c1.756,2.386,3.506,4.776,5.25,7.17
		c0.466,0.64,0.965,1.256,1.364,1.947c0.343,0.594,0.626,0.551,1.004-0.027c0.868-1.328,1.667-2.697,2.496-4.049
		c1.447-2.358,2.98-4.664,4.466-6.998c2.272-3.571,4.53-7.153,6.803-10.724c1.55-2.437,3.11-4.868,4.677-7.293
		c1.763-2.728,3.333-5.581,5.354-8.139c1.146-1.452,2.427-2.731,4.387-2.912c1.58-0.146,3.081,0.069,4.54,0.863
		c1.769,0.962,2.582,2.368,2.598,4.311C103.383,45.247,103.371,46.889,103.371,48.532z M112.154,47.461c-0.048,0-0.095,0-0.144,0
		c0-2.174,0.064-4.351-0.02-6.521c-0.07-1.811-0.679-3.47-1.767-4.96c-1.11-1.523-2.498-2.707-4.071-3.72
		c-1.457-0.938-3.037-1.643-4.691-2.028c-3.191-0.744-6.382-0.768-9.543,0.397c-2.197,0.81-4.027,2.075-5.481,3.862
		c-1.809,2.222-3.427,4.583-5.023,6.968c-1.338,2-2.651,4.019-4.006,6.008c-1.339,1.965-2.5,4.051-3.786,6.052
		c-1.977,3.075-3.904,6.18-5.76,9.329c-0.255,0.434-0.546,0.436-0.842,0.046c-0.115-0.152-0.188-0.335-0.302-0.49
		c-2.753-3.74-5.523-7.469-8.26-11.22c-2.412-3.308-4.779-6.648-7.18-9.963c-2.401-3.314-4.828-6.61-7.223-9.929
		c-0.276-0.383-0.582-0.533-1.028-0.525c-0.894,0.015-1.789-0.014-2.682,0.022c-0.388,0.016-0.913-0.268-1.14,0.152
		c-0.242,0.445,0.3,0.703,0.529,1.014c2.056,2.792,4.121,5.577,6.192,8.357c1.31,1.759,2.682,3.474,3.939,5.269
		c1.813,2.585,3.757,5.073,5.612,7.627c1.529,2.107,3.126,4.166,4.67,6.263c2.314,3.144,4.607,6.303,6.908,9.458
		c0.252,0.345,0.499,0.362,0.734,0c0.565-0.865,1.124-1.734,1.677-2.607c1.289-2.035,2.558-4.083,3.86-6.109
		c1.886-2.938,3.792-5.862,5.696-8.789c1.756-2.699,3.508-5.4,5.284-8.086c1.047-1.584,2.218-3.091,3.19-4.718
		c2.164-3.621,5.394-5.324,9.51-5.452c2.536-0.079,4.948,0.496,7.072,1.93c1.76,1.188,3.254,2.655,3.931,4.75
		c0.512,1.587,0.435,3.249,0.465,4.886c0.056,3.117,0.063,6.234,0.07,9.352c0.001,0.594,0.237,0.833,0.823,0.812
		c0.651-0.024,1.306-0.037,1.958,0c0.629,0.036,0.847-0.201,0.838-0.837C112.135,51.861,112.154,49.661,112.154,47.461z
		 M117.507,46.842c-0.015,0-0.031,0-0.046,0c0-2.368,0.002-4.736-0.002-7.104c-0.001-0.264,0.002-0.538-0.065-0.79
		c-0.416-1.559-0.843-3.1-1.648-4.536c-2.038-3.638-5.068-6.113-8.817-7.793c-1.031-0.462-2.094-0.838-3.181-1.141
		c-0.859-0.238-1.727-0.572-2.602-0.61c-3.465-0.151-6.911-0.34-10.327,0.777c-2.666,0.872-5.044,2.116-7.124,3.953
		c-2.712,2.394-4.496,5.51-6.478,8.465c-1.258,1.875-2.448,3.797-3.671,5.697c-1.054,1.636-2.119,3.265-3.164,4.906
		c-0.943,1.481-1.862,2.976-2.796,4.461c-0.211,0.335-0.449,0.437-0.712,0.034c-0.104-0.162-0.239-0.304-0.353-0.46
		c-2.182-2.956-4.355-5.917-6.546-8.867c-3.044-4.098-6.098-8.188-9.154-12.278c-0.228-0.304-0.449-0.625-0.916-0.619
		c-1.087,0.014-2.175-0.007-3.262,0c-0.517,0.003-0.587,0.259-0.304,0.645c1.643,2.229,3.265,4.472,4.84,6.75
		c1.56,2.255,3.212,4.446,4.807,6.678c1.791,2.506,3.56,5.028,5.342,7.54c1.658,2.336,3.327,4.663,4.978,7.004
		c0.561,0.795,0.78,0.777,1.312-0.068c1-1.591,2.015-3.172,3.06-4.732c1.339-1.999,2.605-4.045,3.971-6.027
		c1.321-1.918,2.514-3.924,3.778-5.881c1.539-2.383,3.09-4.759,4.647-7.131c1.952-2.975,4.321-5.418,7.786-6.694
		c1.857-0.684,3.731-0.976,5.659-0.988c2.441-0.015,4.839,0.228,7.199,1.016c2.307,0.77,4.375,1.86,6.187,3.459
		c1.149,1.014,2.1,2.187,2.835,3.537c0.693,1.271,1.328,2.55,1.323,4.054c-0.014,4.06-0.008,8.119-0.012,12.18
		c-0.001,0.652-0.003,1.305-0.021,1.957c-0.013,0.455,0.169,0.655,0.642,0.649c0.652-0.008,1.305,0.017,1.954,0.065
		c0.643,0.047,0.905-0.168,0.896-0.858C117.486,51.675,117.507,49.259,117.507,46.842z M98.431,64.015
		c0.006,1.054,0.014,1.84,0.315,2.56c0.614,1.462,1.703,2.553,2.929,3.509c2.791,2.179,5.758,4.106,8.677,6.104
		c0.502,0.344,0.87,0.318,1.356-0.035c3.044-2.204,5.971-4.548,8.672-7.167c1.357-1.315,2.429-2.795,2.682-4.747
		c0.33-2.541-1.073-4.771-3.105-5.262c-3.714-0.897-6.384,0.394-8.56,3.327c-0.609,0.821-0.655,0.854-1.333,0.054
		c-1.707-2.01-3.736-3.462-6.458-3.726c-1.184-0.115-2.252,0.115-3.157,0.924C99.035,60.821,98.325,62.385,98.431,64.015z"/>
	<path fill-rule="evenodd" clip-rule="evenodd" fill="#1962AB" d="M103.371,48.532c0-1.643,0.012-3.285-0.003-4.928
		c-0.017-1.942-0.829-3.349-2.598-4.311c-1.459-0.794-2.96-1.009-4.54-0.863c-1.96,0.181-3.241,1.46-4.387,2.912
		c-2.021,2.558-3.591,5.411-5.354,8.139c-1.567,2.425-3.127,4.856-4.677,7.293c-2.273,3.571-4.531,7.153-6.803,10.724
		c-1.485,2.334-3.019,4.64-4.466,6.998c-0.829,1.352-1.628,2.721-2.496,4.049c-0.378,0.578-0.661,0.621-1.004,0.027
		c-0.399-0.691-0.898-1.308-1.364-1.947c-1.745-2.394-3.494-4.785-5.25-7.17c-2.297-3.119-4.611-6.226-6.9-9.351
		c-2.379-3.245-4.727-6.513-7.107-9.757c-2.166-2.951-4.366-5.877-6.533-8.828c-1.853-2.522-3.675-5.067-5.523-7.593
		c-0.625-0.855-1.293-1.682-1.933-2.527c-0.125-0.166-0.316-0.338-0.166-0.579c0.121-0.194,0.334-0.162,0.525-0.164
		c1.231-0.018,2.459,0.137,3.694,0.042c0.355-0.027,0.633,0.163,0.851,0.463c1.556,2.143,3.12,4.279,4.685,6.416
		c1.579,2.157,3.155,4.316,4.742,6.469c2.503,3.394,5.02,6.778,7.521,10.173c2.573,3.492,5.127,7,7.708,10.488
		c1.675,2.264,3.396,4.495,4.997,6.813c0.31,0.447,0.634,0.396,0.923-0.081c0.935-1.54,1.886-3.07,2.85-4.593
		c1.636-2.586,3.29-5.16,4.931-7.742c1.227-1.933,2.438-3.875,3.67-5.802c1.336-2.091,2.657-4.192,4.045-6.248
		c2.1-3.111,4.095-6.307,6.762-8.988c2.227-2.236,4.873-3.363,8.096-3.062c2.073,0.194,3.984,0.75,5.61,2.061
		c2.28,1.836,3.212,4.342,3.277,7.185c0.074,3.262,0.044,6.525,0.094,9.788c0.01,0.682-0.238,0.905-0.891,0.863
		c-0.625-0.041-1.257-0.007-1.885-0.003c-0.998,0.007-1.025-0.021-1.024-0.999c0.001-1.788,0-3.577,0-5.365
		C103.42,48.532,103.396,48.532,103.371,48.532z"/>
	<path fill-rule="evenodd" clip-rule="evenodd" fill="#1962AB" d="M112.154,47.461c0,2.2-0.019,4.399,0.012,6.598
		c0.009,0.636-0.209,0.874-0.838,0.837c-0.651-0.037-1.306-0.024-1.958,0c-0.585,0.021-0.821-0.218-0.823-0.812
		c-0.007-3.117-0.015-6.235-0.07-9.352c-0.03-1.638,0.046-3.299-0.465-4.886c-0.677-2.095-2.17-3.562-3.931-4.75
		c-2.125-1.434-4.537-2.009-7.072-1.93c-4.116,0.128-7.346,1.832-9.51,5.452c-0.972,1.626-2.143,3.134-3.19,4.718
		c-1.776,2.686-3.528,5.387-5.284,8.086c-1.904,2.926-3.81,5.851-5.696,8.789c-1.302,2.026-2.571,4.074-3.86,6.109
		c-0.553,0.874-1.112,1.742-1.677,2.607c-0.235,0.362-0.482,0.345-0.734,0c-2.3-3.155-4.594-6.313-6.908-9.458
		c-1.543-2.098-3.141-4.156-4.67-6.263c-1.855-2.554-3.799-5.042-5.612-7.627c-1.257-1.795-2.63-3.509-3.939-5.269
		c-2.071-2.78-4.137-5.565-6.192-8.357c-0.229-0.311-0.771-0.569-0.529-1.014c0.227-0.42,0.752-0.137,1.14-0.152
		c0.893-0.036,1.788-0.007,2.682-0.022c0.446-0.008,0.751,0.142,1.028,0.525c2.396,3.319,4.822,6.615,7.223,9.929
		c2.401,3.315,4.768,6.655,7.18,9.963c2.736,3.751,5.507,7.48,8.26,11.22c0.113,0.154,0.187,0.337,0.302,0.49
		c0.296,0.39,0.586,0.388,0.842-0.046c1.856-3.149,3.783-6.254,5.76-9.329c1.287-2.001,2.447-4.087,3.786-6.052
		c1.355-1.989,2.668-4.009,4.006-6.008c1.596-2.385,3.214-4.746,5.023-6.968c1.454-1.787,3.284-3.052,5.481-3.862
		c3.161-1.165,6.352-1.141,9.543-0.397c1.654,0.385,3.234,1.09,4.691,2.028c1.573,1.013,2.961,2.197,4.071,3.72
		c1.087,1.49,1.696,3.15,1.767,4.96c0.084,2.171,0.02,4.347,0.02,6.521C112.059,47.461,112.106,47.461,112.154,47.461z"/>
	<path fill-rule="evenodd" clip-rule="evenodd" fill="#1962AB" d="M117.507,46.842c0,2.417-0.021,4.833,0.013,7.25
		c0.01,0.69-0.253,0.906-0.896,0.858c-0.649-0.048-1.302-0.073-1.954-0.065c-0.473,0.006-0.654-0.194-0.642-0.649
		c0.019-0.652,0.021-1.305,0.021-1.957c0.003-4.061-0.002-8.12,0.012-12.18c0.005-1.504-0.63-2.783-1.323-4.054
		c-0.735-1.35-1.686-2.523-2.835-3.537c-1.812-1.599-3.88-2.689-6.187-3.459c-2.36-0.788-4.758-1.031-7.199-1.016
		c-1.928,0.012-3.801,0.304-5.659,0.988c-3.464,1.276-5.834,3.719-7.786,6.694c-1.557,2.372-3.108,4.748-4.647,7.131
		c-1.265,1.957-2.458,3.963-3.778,5.881c-1.366,1.982-2.632,4.028-3.971,6.027c-1.045,1.56-2.06,3.142-3.06,4.732
		c-0.532,0.845-0.751,0.863-1.312,0.068c-1.651-2.341-3.32-4.668-4.978-7.004c-1.783-2.512-3.552-5.034-5.342-7.54
		c-1.594-2.231-3.247-4.423-4.807-6.678c-1.575-2.278-3.197-4.522-4.84-6.75c-0.284-0.385-0.213-0.641,0.304-0.645
		c1.087-0.006,2.175,0.015,3.262,0c0.467-0.006,0.688,0.315,0.916,0.619c3.056,4.089,6.11,8.18,9.154,12.278
		c2.191,2.949,4.364,5.911,6.546,8.867c0.114,0.156,0.249,0.298,0.353,0.46c0.263,0.402,0.501,0.301,0.712-0.034
		c0.935-1.486,1.854-2.98,2.796-4.461c1.044-1.642,2.11-3.27,3.164-4.906c1.223-1.899,2.413-3.821,3.671-5.697
		c1.981-2.956,3.766-6.072,6.478-8.465c2.08-1.836,4.458-3.081,7.124-3.953c3.416-1.117,6.861-0.929,10.327-0.777
		c0.875,0.038,1.743,0.372,2.602,0.61c1.087,0.302,2.15,0.679,3.181,1.141c3.749,1.68,6.779,4.156,8.817,7.793
		c0.805,1.436,1.232,2.977,1.648,4.536c0.067,0.251,0.064,0.526,0.065,0.79c0.004,2.369,0.002,4.736,0.002,7.104
		C117.476,46.842,117.492,46.842,117.507,46.842z"/>
	<path fill-rule="evenodd" clip-rule="evenodd" fill="#E42527" d="M98.431,64.015c-0.106-1.63,0.604-3.194,2.018-4.457
		c0.905-0.809,1.974-1.039,3.157-0.924c2.722,0.264,4.751,1.716,6.458,3.726c0.678,0.8,0.725,0.767,1.333-0.054
		c2.176-2.934,4.846-4.224,8.56-3.327c2.032,0.491,3.436,2.721,3.105,5.262c-0.253,1.952-1.324,3.432-2.682,4.747
		c-2.701,2.619-5.628,4.962-8.672,7.167c-0.487,0.353-0.854,0.378-1.356,0.035c-2.918-1.999-5.886-3.926-8.677-6.104
		c-1.226-0.956-2.315-2.047-2.929-3.509C98.445,65.855,98.438,65.069,98.431,64.015z"/>
</g>
</svg>
