<svg height="512pt" viewBox="0 0 512 512" width="512pt" xmlns="http://www.w3.org/2000/svg"><path d="m158.53125 239.933594c0 8.285156-6.714844 15-15 15-8.28125 0-15-6.714844-15-15s6.71875-15 15-15c8.285156 0 15 6.714844 15 15zm0 0"/><path d="m383.46875 239.933594c0 8.285156-6.71875 15-15 15-8.285156 0-15-6.714844-15-15s6.714844-15 15-15c8.28125 0 15 6.714844 15 15zm0 0"/><path d="m110.332031 288.132812c0 8.285157-6.714843 15-15 15-8.285156 0-15-6.714843-15-15 0-8.285156 6.714844-15 15-15 8.285157 0 15 6.714844 15 15zm0 0"/><path d="m431.667969 288.132812c0 8.285157-6.714844 15-15 15-8.285157 0-15-6.714843-15-15 0-8.285156 6.714843-15 15-15 8.285156 0 15 6.714844 15 15zm0 0"/><path d="m158.53125 320.265625c0 8.285156-6.714844 15-15 15-8.28125 0-15-6.714844-15-15 0-8.28125 6.71875-15 15-15 8.285156 0 15 6.71875 15 15zm0 0"/><path d="m383.46875 320.265625c0 8.285156-6.71875 15-15 15-8.285156 0-15-6.714844-15-15 0-8.28125 6.714844-15 15-15 8.28125 0 15 6.71875 15 15zm0 0"/><path d="m94.265625 352.398438c0 8.285156-6.714844 15-15 15-8.28125 0-15-6.714844-15-15 0-8.28125 6.71875-15 15-15 8.285156 0 15 6.71875 15 15zm0 0"/><path d="m447.734375 352.398438c0 8.285156-6.71875 15-15 15-8.285156 0-15-6.714844-15-15 0-8.28125 6.714844-15 15-15 8.28125 0 15 6.71875 15 15zm0 0"/><path d="m142.46875 384.53125c0 8.285156-6.71875 15-15 15-8.285156 0-15-6.714844-15-15 0-8.28125 6.714844-15 15-15 8.28125 0 15 6.71875 15 15zm0 0"/><path d="m399.53125 384.53125c0 8.285156-6.714844 15-15 15-8.28125 0-15-6.714844-15-15 0-8.28125 6.71875-15 15-15 8.285156 0 15 6.71875 15 15zm0 0"/><path d="m94.265625 432.734375c0 8.28125-6.714844 15-15 15-8.28125 0-15-6.71875-15-15 0-8.285156 6.71875-15 15-15 8.285156 0 15 6.714844 15 15zm0 0"/><path d="m447.734375 432.734375c0 8.28125-6.71875 15-15 15-8.285156 0-15-6.71875-15-15 0-8.285156 6.714844-15 15-15 8.28125 0 15 6.714844 15 15zm0 0"/><path d="m438.71875 198.75-19.484375-22.269531c-17.714844-20.253907-43.328125-31.878907-70.265625-31.878907h-.007812c-33.003907 0-59.761719 26.699219-59.761719 59.761719v63.625l-18.199219-18.203125v-9.789062c0-62.394532 10.003906-124.039063 29.734375-183.226563 1.984375-5.957031 2.398437-10.886719 2.398437-15.535156 0-22.8125-18.46875-41.234375-41.238281-41.234375h-12.015625c-22.628906 0-41.015625 18.308594-41.015625 41.011719 0 4.726562.363281 9.617187 2.402344 15.757812 19.730469 59.1875 29.734375 120.835938 29.734375 183.226563v9.792968l-18.199219 18.199219v-63.625c0-33.0625-26.757812-59.761719-59.761719-59.761719h-.007812c-26.9375 0-52.550781 11.625-70.265625 31.882813l-19.484375 22.265625c-47.257812 54-73.28125 123.265625-73.28125 195.03125v56.753906c0 34.011719 27.519531 61.464844 61.472656 61.464844 70.796875 0 109.667969-43.988281 122.472656-59.339844 25.058594-30.066406 38.855469-68.179687 38.855469-107.320312v-34.925782l33.199219-33.199218 33.199219 33.199218v34.925782c0 39.140625 13.800781 77.253906 38.855469 107.320312 12.804687 15.351563 51.675781 59.339844 122.472656 59.339844 33.953125 0 61.472656-27.453125 61.472656-61.464844v-56.753906c0-71.765625-26.023438-141.03125-73.28125-195.03125zm-245.917969 146.589844c0 32.136718-11.332031 63.429687-31.890625 88.101562-1.304687 1.558594-34.6875 48.558594-99.445312 48.558594-17.402344 0-31.464844-14.078125-31.464844-31.464844v-56.753906c0-64.496094 23.390625-126.746094 65.855469-175.273438l19.484375-22.265624c12.027344-13.753907 29.410156-21.640626 47.6875-21.640626h.007812c16.460938 0 29.765625 13.320313 29.765625 29.761719zm47.015625-297.792969c-1.003906-3.117187-.949218-4.585937-.949218-6.535156 0-6.125 4.957031-11.011719 11.011718-11.011719h12.019532c5.402343 0 11.234374 4.28125 11.234374 11.238281 0 1.960938.011719 3.242188-.945312 6.308594-6.363281 19.113281-11.761719 38.472656-16.1875 58.019531-4.425781-19.546875-9.824219-38.90625-16.183594-58.019531zm242.183594 402.988281c0 17.386719-14.0625 31.464844-31.464844 31.464844-64.757812 0-98.144531-47-99.445312-48.5625-20.558594-24.667969-31.890625-55.960938-31.890625-88.097656v-140.976563c0-16.441406 13.304687-29.761719 29.761719-29.761719h.007812c18.28125 0 35.664062 7.886719 47.6875 21.640626l19.488281 22.265624c42.464844 48.527344 65.855469 110.777344 65.855469 175.273438zm0 0"/></svg>