<?xml version="1.0" encoding="utf-8"?>
<!-- Generator: Adobe Illustrator 16.0.0, SVG Export Plug-In . SVG Version: 6.00 Build 0)  -->
<!DOCTYPE svg PUBLIC "-//W3C//DTD SVG 1.1//EN" "http://www.w3.org/Graphics/SVG/1.1/DTD/svg11.dtd">
<svg version="1.1" id="Слой_1" xmlns="http://www.w3.org/2000/svg" xmlns:xlink="http://www.w3.org/1999/xlink" x="0px" y="0px"
	 width="68.493px" height="32.896px" viewBox="0 0 68.493 32.896" enable-background="new 0 0 68.493 32.896" xml:space="preserve">
<path fill-rule="evenodd" clip-rule="evenodd" d="M0,3.709c0.101-0.371,0.159-0.761,0.311-1.11C0.99,1.039,2.186,0.129,3.89,0.053
	c1.557-0.07,3.122-0.073,4.678,0.005c1.849,0.092,3.341,1.518,3.682,3.299c0.057,0.301,0.077,0.614,0.08,0.921
	c0.009,1.236,0.003,2.473,0.003,3.709c0,0.077,0,0.154,0,0.253c-4.127,0-8.23,0-12.333,0C0,6.729,0,5.219,0,3.709z"/>
<path fill-rule="evenodd" clip-rule="evenodd" d="M68.481,8.238c-1.365,0-2.721,0-4.099,0c0,8.23,0,16.439,0,24.658
	c-0.917,0-1.813,0-2.732,0c0-0.098,0-0.183,0-0.268c0-1.928-0.002-3.854,0.003-5.782c0-0.155-0.042-0.266-0.154-0.377
	c-2.377-2.373-4.752-4.748-7.124-7.125c-0.104-0.104-0.207-0.147-0.356-0.147c-8.608,0.004-17.218,0.004-25.827,0
	c-0.156,0-0.265,0.043-0.375,0.154c-2.372,2.378-4.747,4.753-7.125,7.125c-0.111,0.111-0.154,0.22-0.154,0.376
	c0.005,1.92,0.003,3.841,0.003,5.761c0,0.086,0,0.172,0,0.276c-0.904,0-1.797,0-2.72,0c0-8.205,0-16.413,0-24.647
	c-0.93,0-1.831,0-2.754,0c0-0.097,0-0.166,0-0.237c0-1.28-0.002-2.56,0.001-3.84c0.004-1.99,1.372-3.667,3.323-4.057
	c0.286-0.058,0.585-0.075,0.878-0.075C34.286,0.03,49.303,0.03,64.319,0.032c2.032,0,3.673,1.325,4.092,3.3
	c0.055,0.258,0.076,0.527,0.077,0.791c0.008,1.316,0.004,2.632,0.004,3.948C68.492,8.12,68.486,8.168,68.481,8.238z M30.732,16.453
	c6.929,0,13.817,0,20.739,0c-0.059-0.063-0.091-0.099-0.126-0.134c-2.654-2.654-5.307-5.309-7.966-7.958
	c-0.069-0.069-0.196-0.116-0.296-0.117c-1.302-0.008-2.604-0.002-3.904-0.009c-0.173-0.001-0.292,0.046-0.414,0.167
	c-2.62,2.627-5.244,5.249-7.867,7.873C30.848,16.326,30.801,16.379,30.732,16.453z M27.438,15.777
	c2.524-2.521,5.033-5.028,7.524-7.517c-4.622,0-9.279,0-13.97,0C23.166,10.795,25.315,13.302,27.438,15.777z M54.73,15.809
	c2.156-2.515,4.308-5.025,6.474-7.551c-4.701,0-9.36,0-14.034,0C49.694,10.779,52.201,13.283,54.73,15.809z M61.637,11.96
	c-1.681,1.96-3.324,3.877-4.942,5.764c1.657,1.661,3.299,3.307,4.942,4.956C61.637,19.136,61.637,15.583,61.637,11.96z
	 M20.547,22.688c1.652-1.655,3.298-3.304,4.955-4.963c-1.626-1.895-3.271-3.814-4.955-5.777
	C20.547,15.575,20.547,19.131,20.547,22.688z"/>
</svg>
