<?xml version="1.0" encoding="utf-8"?>
<!-- Generator: Adobe Illustrator 16.0.0, SVG Export Plug-In . SVG Version: 6.00 Build 0)  -->
<!DOCTYPE svg PUBLIC "-//W3C//DTD SVG 1.1//EN" "http://www.w3.org/Graphics/SVG/1.1/DTD/svg11.dtd">
<svg version="1.1" id="Слой_1" xmlns="http://www.w3.org/2000/svg" xmlns:xlink="http://www.w3.org/1999/xlink" x="0px" y="0px"
	 width="20.16px" height="46.869px" viewBox="24.92 20.72 20.16 46.869" enable-background="new 24.92 20.72 20.16 46.869"
	 xml:space="preserve">
<path d="M29.736,61.541c-0.448,0.448-0.448,1.12,0,1.568l4.48,4.479c0.448,0.448,1.12,0.448,1.568,0l4.479-4.479
	c0.448-0.448,0.448-1.12,0-1.568c-0.224-0.224-0.504-0.336-0.783-0.336c-0.28,0-0.561,0.112-0.785,0.336L35,65.237l-3.696-3.696
	c-0.224-0.224-0.504-0.336-0.784-0.336S29.96,61.317,29.736,61.541z"/>
<path d="M29.736,56.949l4.48,4.479c0.448,0.448,1.12,0.448,1.568,0l4.479-4.479c0.448-0.448,0.448-1.12,0-1.568
	c-0.224-0.224-0.504-0.336-0.783-0.336c-0.28,0-0.561,0.112-0.785,0.336L35,59.077l-3.696-3.696
	c-0.224-0.224-0.504-0.336-0.784-0.336s-0.56,0.112-0.784,0.336C29.288,55.829,29.288,56.501,29.736,56.949z"/>
<path d="M35,20.72c-5.544,0-10.08,4.536-10.08,10.08v10.08c0,5.544,4.536,10.08,10.08,10.08s10.08-4.536,10.08-10.08V30.8
	C45.08,25.256,40.544,20.72,35,20.72z M42.84,40.88c0,4.312-3.527,7.841-7.84,7.841c-4.312,0-7.84-3.529-7.84-7.841V30.8
	c0-4.312,3.528-7.84,7.84-7.84c4.313,0,7.84,3.528,7.84,7.84V40.88z"/>
<path d="M35,26.88c-0.616,0-1.12,0.504-1.12,1.12v3.36c0,0.616,0.504,1.12,1.12,1.12s1.12-0.504,1.12-1.12V28
	C36.12,27.384,35.616,26.88,35,26.88z"/>
</svg>
