<svg xmlns="http://www.w3.org/2000/svg" xmlns:xlink="http://www.w3.org/1999/xlink" xml:space="preserve" version="1.1" style="shape-rendering:geometricPrecision;text-rendering:geometricPrecision;image-rendering:optimizeQuality;" viewBox="0 0 224 416.25" x="0px" y="0px" fill-rule="evenodd" clip-rule="evenodd"><g><path class="fil0" d="M108 7c3,-6 9,-9 15,-6 6,3 8,9 6,15 -18,39 -166,240 -81,241l8 0c31,-1 127,-6 93,51l-11 19c-3,6 -10,7 -15,4 -5,-3 -7,-10 -4,-15 4,-6 18,-25 12,-30 -32,-26 -132,25 -131,-54 1,-76 77,-157 108,-225zm68 182c-5,-3 -7,-10 -3,-15 3,-6 10,-7 15,-4 0,0 80,52 0,105 -5,4 -12,2 -15,-3 -4,-5 -2,-12 3,-15 52,-35 0,-68 0,-68zm-85 53c-6,3 -12,2 -15,-4 -4,-5 -2,-12 4,-15 0,0 33,-20 64,2 5,3 6,10 3,15 -4,5 -11,6 -16,3 -19,-13 -40,-1 -40,-1z"/></g></svg>