<?xml version="1.0" encoding="utf-8"?>
<!-- Generator: Adobe Illustrator 16.0.0, SVG Export Plug-In . SVG Version: 6.00 Build 0)  -->
<!DOCTYPE svg PUBLIC "-//W3C//DTD SVG 1.1//EN" "http://www.w3.org/Graphics/SVG/1.1/DTD/svg11.dtd">
<svg version="1.1" id="Слой_1" xmlns="http://www.w3.org/2000/svg" xmlns:xlink="http://www.w3.org/1999/xlink" x="0px" y="0px"
	 width="37.697px" height="55.775px" viewBox="16.159 0 37.697 55.775" enable-background="new 16.159 0 37.697 55.775"
	 xml:space="preserve">
<path d="M52.303,13.595H25.069c-0.853,0-1.542,0.689-1.542,1.542v2.516c0,7.842,5.983,14.306,13.617,15.083v2.363
	c-1.87-0.449-4.003-0.81-6.387-1.061c-7.306-0.788-9.91-5.994-10.806-9.023c-2.013-6.749,0.459-14.842,5.873-19.272
	c2.614-2.144,4.977-2.428,6.781-2.122c-0.284,2.089,1.116,4.518,3.664,6.016c3.14,1.849,6.672,1.488,8.028-0.831
	c1.356-2.308-0.044-5.567-3.183-7.416c-2.374-1.4-4.977-1.531-6.683-0.503c-2.297-0.7-6.256-1.05-10.555,2.461
	c-6.431,5.261-9.264,14.536-6.879,22.531c1.903,6.41,6.803,10.5,13.442,11.222c2.767,0.296,4.966,0.711,6.715,1.171v7.524
	c-3.62,0.263-8.061,1.247-11.429,7.723c-0.394,0.754-0.099,1.684,0.656,2.078c0.689,0.415,1.772,0.076,2.078-0.656
	c2.592-4.966,5.545-5.809,8.695-6.049v3.795h-4.735c-0.854,0-1.542,0.689-1.542,1.543c0,0.853,0.689,1.542,1.542,1.542h12.556
	c0.854,0,1.543-0.689,1.543-1.542c0-0.854-0.689-1.543-1.543-1.543h-4.735v-3.97c2.516-0.197,5.075-0.82,6.595-3.938
	c0.099-0.208,0.897-2.122-0.394-4.386c-1.039-1.827-3.117-3.293-6.201-4.397v-3.259c7.634-0.776,13.617-7.241,13.617-15.083v-2.516
	C53.846,14.284,53.156,13.595,52.303,13.595z M35.667,3.741c0.405-0.678,2.144-0.689,3.872,0.328s2.581,2.538,2.177,3.215
	c-0.405,0.678-2.144,0.689-3.872-0.328C36.115,5.939,35.263,4.419,35.667,3.741z M43.695,41.836
	c0.525,0.864,0.361,1.531,0.307,1.674c-0.766,1.52-1.871,1.925-3.773,2.1v-6.311C42.339,40.206,43.291,41.158,43.695,41.836z
	 M50.761,17.653c0,6.661-5.414,12.075-12.075,12.075c-6.661,0-12.075-5.414-12.075-12.075V16.68h24.15V17.653z"/>
</svg>
