<?xml version="1.0" encoding="utf-8"?>
<!-- Generator: Adobe Illustrator 16.0.0, SVG Export Plug-In . SVG Version: 6.00 Build 0)  -->
<!DOCTYPE svg PUBLIC "-//W3C//DTD SVG 1.1//EN" "http://www.w3.org/Graphics/SVG/1.1/DTD/svg11.dtd">
<svg version="1.1" id="Слой_1" xmlns="http://www.w3.org/2000/svg" xmlns:xlink="http://www.w3.org/1999/xlink" x="0px" y="0px"
	 width="22.952px" height="25.556px" viewBox="23.59 15.223 22.952 25.556" enable-background="new 23.59 15.223 22.952 25.556"
	 xml:space="preserve">
<path d="M36.4,15.223c-5.52,0-10.01,4.49-10.01,10.01v0.487l-2.701,5.043c-0.139,0.26-0.131,0.574,0.02,0.828
	C23.861,31.844,24.135,32,24.43,32h1.96V35.1c0,1.776,1.445,3.22,3.22,3.22h3.64v1.617c0,0.465,0.376,0.841,0.84,0.841
	c0.464,0,0.84-0.376,0.84-0.841V37.48c0-0.464-0.376-0.84-0.84-0.84h-4.48c-0.85,0-1.54-0.691-1.54-1.541v-3.94
	c0-0.464-0.376-0.84-0.84-0.84h-1.397l2.137-3.993c0.065-0.122,0.1-0.258,0.1-0.396v-0.698c0-4.593,3.737-8.33,8.331-8.33
	c4.593,0,8.33,3.737,8.33,8.33c0,2.21-0.855,4.284-2.411,5.852c-0.202,0.155-0.329,0.399-0.329,0.667v8.161
	c0,0.464,0.376,0.84,0.84,0.84c0.463,0,0.84-0.376,0.84-0.84v-7.808c1.77-1.864,2.74-4.291,2.74-6.872
	C46.41,19.712,41.92,15.223,36.4,15.223z M40.85,21.199c-1.001-1.12-2.423-1.816-4.004-1.961c-3.539-0.317-6.27,2.293-6.642,6.363
	c-0.042,0.462,0.297,0.871,0.759,0.913c0.459,0.036,0.871-0.298,0.913-0.76c0.287-3.135,2.226-5.085,4.817-4.842
	c1.155,0.105,2.187,0.605,2.904,1.407c0.717,0.803,1.057,1.852,0.955,2.953c-0.078,0.857-0.485,1.633-1.147,2.184
	c-0.661,0.55-1.499,0.81-2.356,0.732c-1.324-0.121-2.302-1.296-2.182-2.62c0.091-0.989,0.982-1.781,1.924-1.695
	c0.599,0.055,1.203,0.46,1.146,1.104c-0.047,0.509-0.548,0.688-0.753,0.67c-0.465-0.03-0.862,0.321-0.893,0.784
	s0.32,0.863,0.783,0.893c1.109,0.059,2.4-0.746,2.534-2.194c0.136-1.495-1.035-2.782-2.665-2.93
	c-1.859-0.167-3.573,1.302-3.749,3.215c-0.205,2.247,1.455,4.241,3.701,4.447c0.152,0.014,0.304,0.021,0.456,0.021
	c1.143,0,2.239-0.396,3.129-1.136c1.006-0.838,1.625-2.018,1.744-3.322C42.369,23.854,41.881,22.354,40.85,21.199z"/>
</svg>
