<svg height="512pt" viewBox="0 0 512 512" width="512pt" xmlns="http://www.w3.org/2000/svg"><path d="m30 497c0 8.285156 6.714844 15 15 15h73c8.285156 0 15-6.714844 15-15v-15h-103zm0 0"/><path d="m379 497c0 8.285156 6.714844 15 15 15h73c8.285156 0 15-6.714844 15-15v-15h-103zm0 0"/><path d="m497 0h-482c-8.285156 0-15 6.714844-15 15v422c0 8.285156 6.714844 15 15 15h482c8.285156 0 15-6.714844 15-15v-422c0-8.285156-6.714844-15-15-15zm-45 377c0 8.285156-6.714844 15-15 15h-362c-8.285156 0-15-6.714844-15-15v-302c0-8.285156 6.714844-15 15-15h362c8.285156 0 15 6.714844 15 15zm0 0"/><path d="m90 362h332v-51h-48c-8.285156 0-15-6.71875-15-15 0-8.285156 6.714844-15 15-15h48v-110h-48c-8.285156 0-15-6.714844-15-15s6.714844-15 15-15h48v-51h-332zm118-216c44.113281 0 80 35.886719 80 80 0 44.109375-35.886719 80-80 80s-80-35.890625-80-80c0-44.113281 35.886719-80 80-80zm0 0"/><path d="m208 276c27.570312 0 50-22.429688 50-50s-22.429688-50-50-50-50 22.429688-50 50 22.429688 50 50 50zm0-65c8.261719 0 15 6.738281 15 15s-6.738281 15-15 15-15-6.738281-15-15 6.738281-15 15-15zm0 0"/></svg>