<?xml version="1.0" encoding="utf-8"?>
<!-- Generator: Adobe Illustrator 16.0.0, SVG Export Plug-In . SVG Version: 6.00 Build 0)  -->
<!DOCTYPE svg PUBLIC "-//W3C//DTD SVG 1.1//EN" "http://www.w3.org/Graphics/SVG/1.1/DTD/svg11.dtd">
<svg version="1.1" id="Слой_1" xmlns="http://www.w3.org/2000/svg" xmlns:xlink="http://www.w3.org/1999/xlink" x="0px" y="0px"
	 width="383.855px" height="511.95px" viewBox="0 0 383.855 511.95" enable-background="new 0 0 383.855 511.95"
	 xml:space="preserve">
<g>
	<path fill-rule="evenodd" clip-rule="evenodd" d="M251.876,0c6.332,0,12.666,0,18.998,0c3.073,0.671,6.171,1.246,9.217,2.029
		c18.109,4.66,32.485,13.771,38.093,32.844c1.199,4.081,1.49,8.428,2.278,13.127c5.33,0,10.793-0.084,16.252,0.015
		c24.092,0.439,47.271,24.201,47.14,48.271c-0.129,23.923-23.925,47.313-48.466,47.609c-5.097,0.062-10.195,0.009-15.638,0.009
		c0.731,12.467-1.784,23.443-8.357,33.392c-0.555,0.839-0.479,2.71,0.096,3.583c5.33,8.112,8.088,17.021,8.517,27.167
		c4.324,0,8.451,0.002,12.579,0c20.838-0.011,39.535,12.029,47.243,31.521c2.43,6.144,4.161,13.377,3.45,19.806
		c-2.835,25.656-24.847,44.502-50.593,44.507c-4.248,0.001-8.495,0-11.359,0c-1.974,8.819-3.723,16.529-5.401,24.254
		c-0.236,1.088-0.392,2.313-0.142,3.37c1.596,6.719,3.315,13.408,5.097,20.523c2.385,0,5.204,0.124,8.008-0.021
		c12.018-0.623,23.072,2.004,32.991,9.1c17.496,12.517,25.671,33.38,19.966,51.364c-6.569,20.705-26.696,35.481-48.172,35.377
		c-4.586-0.021-9.17-0.003-13.976-0.003c0,3.501,0.103,6.167-0.016,8.823c-0.918,20.57-17.639,40.805-37.69,45.281
		c-59.431,13.271-118.927,13.278-178.404,0.359c-23.255-5.051-39.486-25.49-39.616-49.271c-0.009-1.605-0.154-3.21-0.254-5.17
		c-4.515,0-8.661-0.172-12.789,0.031c-13.67,0.675-25.151-4.433-34.793-13.64c-10.67-10.189-17.675-22.42-15.83-37.718
		c3.08-25.529,25.063-44.5,50.756-44.513c4.249-0.003,8.498-0.001,11.905-0.001c1.83-6.983,3.441-13.064,5.003-19.159
		c0.276-1.075,0.691-2.281,0.46-3.295c-1.902-8.317-3.942-16.604-6.033-25.289c-6.497-0.388-14.182-0.246-21.664-1.405
		C19.058,299.521-0.383,276.593,0,255.479c0.384-21.101,19.44-43.136,40.705-46.416c7.497-1.156,15.193-1.021,22.679-1.47
		c0.977-4.551,1.479-9.235,3.042-13.533c1.629-4.48,4.462-8.509,6.374-12.907c0.557-1.283,0.1-3.295-0.484-4.734
		c-2.302-5.666-5.42-11.069-7.106-16.897c-1.396-4.826-1.205-10.11-1.76-15.617c-5.18,0-10.312,0.079-15.44-0.013
		C23.956,143.46,0.304,120.344-0.098,96.92c-0.422-24.547,22.884-48.554,47.517-48.905c5.442-0.078,10.885-0.012,16.245-0.012
		c2.027-23.962,14.032-38.569,36.65-45.035c4.138-1.183,8.384-1.988,12.58-2.968c6.333,0,12.666,0,18.998,0
		c0.781,0.26,1.547,0.68,2.345,0.756c13.563,1.303,26.152,6.01,38.533,11.26c10.358,4.393,20.902,5.557,31.543,1.99
		C220.003,8.748,235.279,2.159,251.876,0z M192.244,335.976c27.923-0.009,55.501-3.179,82.757-9.177
		c9.567-2.105,12.807-6.24,12.855-16.075c0.033-6.665,0.008-13.331,0.009-19.997c0.002-12.639,6.103-18.79,18.595-18.777
		c10.165,0.011,20.331,0.058,30.494-0.021c4.632-0.037,9.213-0.938,11.938-5.061c4.195-6.351,4.065-13.318,1.063-20.042
		c-2.626-5.879-8.194-6.797-13.913-6.825c-10.331-0.051-20.663,0.015-30.995-0.042c-10.596-0.058-17.087-6.562-17.16-17.164
		c-0.043-6.165,0.068-12.332,0.014-18.496c-0.049-5.557-1.118-6.392-6.438-5.375c-4.249,0.813-8.498,1.628-12.756,2.397
		c-8.882,1.606-17.18-3.74-18.917-12.158c-1.859-9.013,3.343-17.067,12.443-19.117c4.541-1.023,9.144-1.781,13.68-2.827
		c8.823-2.035,11.907-5.969,11.951-15.109c0.035-7.5-0.02-14.999,0.003-22.497c0.032-11.181,6.501-17.62,17.726-17.639
		c10.332-0.019,20.665,0.04,30.995-0.016c4.808-0.026,9.555-0.861,12.382-5.178c4.054-6.19,3.965-13.009,1.165-19.606
		c-2.614-6.154-8.301-7.136-14.215-7.158c-10.164-0.04-20.33,0.006-30.495-0.035c-10.963-0.044-17.463-6.472-17.543-17.307
		c-0.034-4.666-0.013-9.332-0.018-13.999c-0.012-12.019-2.572-14.913-14.51-16.347c-1.319-0.158-2.663-0.122-3.987-0.262
		c-13.806-1.465-26.196,3.536-38.622,8.409c-12.204,4.786-24.825,7.305-37.979,7.57c-17.935,0.363-34.425-5.111-50.688-11.745
		c-11.448-4.668-23.283-5.315-35.34-3.345c-7.338,1.199-10.438,4.63-10.742,12.116c-0.235,5.824-0.044,11.663-0.107,17.495
		c-0.121,11.019-6.439,17.347-17.435,17.407c-10.498,0.058-20.996-0.037-31.494,0.054c-4.99,0.044-9.904,1.011-12.579,5.73
		c-3.597,6.347-3.607,13.166-0.439,19.668c2.815,5.778,8.439,6.506,14.111,6.54c10.498,0.062,20.998-0.051,31.494,0.062
		c9.612,0.103,16.207,6.8,16.314,16.462c0.085,7.665-0.036,15.332,0.061,22.996c0.112,9.025,3.283,13.212,12.122,15.085
		c9.761,2.068,19.562,4.478,29.463,5.261c23.385,1.85,46.835,2.89,70.267,4.116c9.054,0.474,15.988,7.059,16.115,15.765
		c0.131,8.942-6.822,16.047-16.094,16.254c-34.934,0.781-69.534-2.172-103.736-9.45c-5.693-1.211-8.115,0.642-8.188,6.501
		c-0.072,5.831,0.052,11.665,0.014,17.496c-0.074,10.996-6.413,17.377-17.384,17.442c-10.498,0.063-20.996-0.036-31.494,0.052
		c-4.988,0.041-9.906,0.985-12.599,5.692c-3.629,6.342-3.588,13.172-0.477,19.675c2.776,5.802,8.416,6.538,14.088,6.571
		c10.498,0.062,20.999-0.092,31.494,0.061c9.726,0.142,16.234,6.753,16.362,16.44c0.097,7.331-0.006,14.664,0.03,21.996
		c0.051,10.211,3.24,14.185,13.083,16.393C136.398,332.983,164.162,335.915,192.244,335.976z M95.896,356.641
		c0,3.611,0.011,6.599-0.002,9.586c-0.049,11.277-6.399,17.683-17.617,17.718c-10.33,0.031-20.659-0.023-30.989,0.032
		c-4.795,0.026-9.591,0.767-12.428,5.071c-4.174,6.335-4.102,13.313-1.076,20.037c2.635,5.854,8.201,6.813,13.914,6.844
		c10.33,0.057,20.66-0.016,30.989,0.018c10.47,0.033,16.825,6.263,17.003,16.701c0.119,6.995,0.142,13.992,0.153,20.988
		c0.018,11.119,2.804,15.443,13.856,17.172c21.343,3.341,42.744,6.818,64.257,8.451c34.249,2.599,68.188-1.175,101.685-8.652
		c9.014-2.014,12.139-6.201,12.218-15.561c0.06-7.163-0.006-14.328,0.018-21.492c0.038-11.221,6.432-17.577,17.716-17.603
		c10.33-0.023,20.661,0.057,30.989-0.038c5.159-0.047,10.239-1.009,12.97-5.959c3.413-6.188,3.618-12.807,0.453-19.191
		c-2.95-5.95-8.601-6.796-14.48-6.808c-10.496-0.021-20.993,0.095-31.487-0.037c-9.358-0.118-15.962-6.812-16.162-16.143
		c-0.078-3.632-0.013-7.268-0.013-11.162C223.767,371.797,160.092,371.554,95.896,356.641z"/>
	<path fill-rule="evenodd" clip-rule="evenodd" d="M111.974,103.661c0-7.646-0.065-15.293,0.017-22.938
		c0.105-9.789,6.844-16.773,15.988-16.719c9.104,0.054,15.854,7.131,15.894,16.87c0.063,15.293,0.153,30.587-0.033,45.878
		c-0.153,12.498-10.511,20.214-21.393,16.244c-6.335-2.312-10.348-7.794-10.485-14.901c-0.158-8.142-0.037-16.289-0.037-24.434
		C111.94,103.661,111.957,103.661,111.974,103.661z"/>
	<path fill-rule="evenodd" clip-rule="evenodd" d="M112.428,263.801c-0.001-7.984-0.122-15.973,0.031-23.954
		c0.175-9.142,6.999-15.943,15.629-15.863c8.705,0.08,15.68,6.962,15.758,15.992c0.139,15.97,0.127,31.94,0.007,47.91
		c-0.069,9.303-6.946,15.924-16.224,16.006c-8.619,0.076-14.965-6.325-15.164-15.637
		C112.292,280.106,112.429,271.952,112.428,263.801z"/>
	<path fill-rule="evenodd" clip-rule="evenodd" d="M111.961,415.496c0-6.321-0.028-12.644,0.008-18.966
		c0.049-8.439,6.61-15.246,14.993-15.612c8.767-0.383,16.495,5.71,16.754,14.244c0.42,13.799,0.393,27.628,0.018,41.43
		c-0.228,8.352-7.775,14.647-16.141,14.446c-8.558-0.207-15.087-6.452-15.572-15.074c-0.196-3.485-0.072-6.987-0.082-10.482
		c-0.009-3.329-0.002-6.656-0.002-9.985C111.945,415.496,111.953,415.496,111.961,415.496z"/>
</g>
</svg>
