<?xml version="1.0" encoding="iso-8859-1"?>
<!-- Generator: Adobe Illustrator 19.0.0, SVG Export Plug-In . SVG Version: 6.00 Build 0)  -->
<svg version="1.1" id="Capa_1" xmlns="http://www.w3.org/2000/svg" xmlns:xlink="http://www.w3.org/1999/xlink" x="0px" y="0px"
	 viewBox="0 0 512 512" style="enable-background:new 0 0 512 512;" xml:space="preserve">
<g>
	<g>
		<path d="M452,363.505v-17.508c0-22.034-9.634-42.863-26.431-57.15c-16.787-14.276-39.039-20.41-61.051-16.832
			c-35.639,5.797-62.513,38.982-62.513,77.191v72.788c0,34.639-29.71,63.339-66.239,59.685
			c-30.193-3.022-54.756-31.715-54.756-63.961v-74.303c0.571-0.203,1.141-0.412,1.705-0.638l10.735-4.283
			c55.665-22.264,103.551-59.853,131.378-103.127c9.002-13.999,9.594-31.119,1.582-45.795c-1.93-3.536-4.296-6.739-6.999-9.573
			c8.501-23.343,10.256-48.795,5.028-74.266c-9.675-47.134-40.669-74.987-41.22-75.724l4.394-4.394
			c5.858-5.858,5.858-15.354,0-21.212c-5.857-5.858-15.354-5.858-21.212,0l-29.999,29.999c-5.858,5.858-5.858,15.354,0,21.212
			c5.857,5.857,15.354,5.858,21.212,0l4.394-4.394l0.979,0.979c30.38,30.38,41.631,75.783,29.359,114.163
			c-17.974-2.23-34.345,6.604-43.807,21.132c-16.96,26.04-46.828,49.486-82.526,64.936c-35.698-15.451-65.565-38.898-82.526-64.936
			c-9.531-14.631-25.949-23.352-43.809-21.132c-12.274-38.371-1.023-83.78,29.36-114.163l0.979-0.979l4.394,4.394
			c5.857,5.857,15.354,5.858,21.212,0c5.858-5.858,5.858-15.354,0-21.212L65.623,4.403c-5.857-5.858-15.354-5.858-21.212,0
			c-5.858,5.858-5.858,15.354,0,21.212l4.394,4.394c-0.575,0.77-31.534,28.53-41.22,75.724C2.356,131.2,4.11,156.65,12.613,179.999
			c-2.703,2.834-5.069,6.038-6.999,9.574c-8.011,14.676-7.419,31.796,1.583,45.794c27.829,43.274,75.714,80.857,131.372,103.11
			l10.707,4.286c0.575,0.231,1.156,0.444,1.738,0.651v74.303c0,48.014,35.916,89.221,81.767,93.81
			c53.396,5.352,99.226-36.441,99.226-89.533v-72.787c0-23.664,16.048-44.119,37.331-47.581c13.512-2.196,26.578,1.381,36.8,10.075
			c10.084,8.576,15.867,21.077,15.867,34.298v17.508c-34.191,6.968-59.998,37.27-59.998,73.488
			c0,41.353,33.644,74.997,74.997,74.997S512,478.347,512,436.994C511.997,400.775,486.19,370.474,452,363.505z M171.568,314.925
			c-3.544,1.424-7.554,1.43-11.13-0.006l-10.728-4.294c-50.003-19.992-92.751-53.336-117.283-91.483
			c-4.285-6.664-1.766-12.846-0.483-15.195c5.245-9.61,18.961-11.505,26.405-0.078c21.12,32.426,58.32,61.123,102.061,78.732
			c3.594,1.447,7.609,1.447,11.203,0c43.741-17.608,80.942-46.306,102.061-78.732c7.351-11.285,21.092-9.656,26.405,0.077
			c1.283,2.349,3.803,8.533-0.483,15.196c-24.531,38.149-67.28,71.498-117.273,91.494L171.568,314.925z M437,481.991
			c-24.812,0-44.998-20.186-44.998-44.998s20.186-44.998,44.998-44.998c24.812,0,44.998,20.186,44.998,44.998
			S461.812,481.991,437,481.991z"/>
	</g>
</g>
<g>
	<g>
		<circle cx="437" cy="436.993" r="14.999"/>
	</g>
</g>
<g>
</g>
<g>
</g>
<g>
</g>
<g>
</g>
<g>
</g>
<g>
</g>
<g>
</g>
<g>
</g>
<g>
</g>
<g>
</g>
<g>
</g>
<g>
</g>
<g>
</g>
<g>
</g>
<g>
</g>
</svg>
