<?xml version="1.0" encoding="iso-8859-1"?>
<!-- Generator: Adobe Illustrator 19.0.0, SVG Export Plug-In . SVG Version: 6.00 Build 0)  -->
<svg version="1.1" id="Capa_1" xmlns="http://www.w3.org/2000/svg" xmlns:xlink="http://www.w3.org/1999/xlink" x="0px" y="0px"
	 viewBox="0 0 469.344 469.344" style="enable-background:new 0 0 469.344 469.344;" xml:space="preserve">
<g>
	<g>
		<path d="M384.005,213.344c-47.052,0-85.333,38.281-85.333,85.333c0,38.848,26.253,71.349,61.835,81.63
			c-8.376,27.004-33.625,46.37-62.595,46.37h-9.906c-50.793,0-92.072-39.764-95.367-89.737l26.418-35.223
			c13.134-14.053,100.949-110.811,100.949-184.374V74.677c0-23.531-19.135-42.667-42.667-42.667h-1.504
			C271.064,13.656,254.499,0,234.672,0c-23.531,0-42.677,19.146-42.677,42.677s19.146,42.677,42.677,42.677
			c11.102,0,21.137-4.363,28.736-11.336c1.108,0.177,2.107,0.659,3.264,0.659h10.667v42.667c0,45.656-55.896,117.75-84.073,149.333
			h-46.5C104.193,228.219,42.672,158.26,42.672,117.344V74.677h10.667c1.155,0,2.151-0.48,3.256-0.658
			c7.599,6.971,17.633,11.335,28.733,11.335c23.531,0,42.677-19.146,42.677-42.677S108.859,0,85.328,0
			C65.501,0,48.936,13.656,44.165,32.01h-1.493c-23.531,0-42.667,19.135-42.667,42.667v42.667
			c0,73.836,104.833,169.307,122.936,185.245l26.784,35.711c3.993,72.906,64.395,131.044,138.28,131.044h9.906
			c51.78,0,96.258-37.513,106.001-87.921c37.436-9.023,65.426-42.579,65.426-82.746
			C469.339,251.625,431.057,213.344,384.005,213.344z M384.005,341.344c-23.531,0-42.667-19.135-42.667-42.667
			c0-23.531,19.135-42.667,42.667-42.667s42.667,19.135,42.667,42.667C426.672,322.208,407.536,341.344,384.005,341.344z"/>
	</g>
</g>
<g>
</g>
<g>
</g>
<g>
</g>
<g>
</g>
<g>
</g>
<g>
</g>
<g>
</g>
<g>
</g>
<g>
</g>
<g>
</g>
<g>
</g>
<g>
</g>
<g>
</g>
<g>
</g>
<g>
</g>
</svg>
