<svg viewBox="0 0 512.00005 512" xmlns="http://www.w3.org/2000/svg"><path d="m431.929688 440.90625c7.09375 8.453125 5.984374 21.054688-2.46875 28.144531-33.5625 28.15625-76.199219 42.429688-126.722657 42.429688-73.867187 0-108.140625-37.414063-133.167969-64.734375-18.160156-19.824219-28.394531-30.167969-44.652343-30.167969-.398438 0-.75.007813-1.050781.023437-2.378907 4.746094-4.25 16.054688-4.011719 21.101563.046875.9375.066406 1.894531.066406 2.847656v50.949219c0 11.035156-8.945313 19.980469-19.980469 19.980469s-19.976562-8.945313-19.976562-19.980469v-50.949219c0-.3125-.007813-.628906-.023438-.945312-.015625-.339844-.851562-34.441407 15.902344-52.007813 7.050781-7.390625 16.558594-10.980468 29.074219-10.980468 34.601562 0 54.691406 21.929687 74.117187 43.136718 23.3125 25.449219 47.421875 51.765625 103.703125 51.765625 40.875 0 74.871094-11.128906 101.042969-33.082031 8.457031-7.09375 21.058594-5.988281 28.148438 2.46875zm-307.011719-104.25c27.34375 0 42.226562 9.746094 57.988281 20.066406 14.957031 9.792969 31.910156 20.894532 56.894531 20.894532 27.742188 0 44.976563-16.84375 44.976563-43.960938l-.023438-115.878906c0-20.160156-3.683594-34.546875-11.257812-43.980469-4.328125-5.386719-12.019532-11.800781-24.160156-11.957031-13.589844-.566406-27.886719-7.894532-39.257813-20.136719-31.53125-33.933594-48.199219-76.023437-48.199219-121.722656 0-11.035157-8.941406-19.980469-19.976562-19.980469s-19.980469 8.945312-19.980469 19.980469c0 27.570312 5.054687 54.375 15.027344 79.671875 10.019531 25.417968 24.777343 48.714844 43.855469 69.25 17.617187 18.960937 39.613281 30.394531 62.414062 32.558594.726562 2.746093 1.578125 7.789062 1.578125 16.320312l.019531 115.878906c0 1.761719-.164062 2.886719-.308594 3.535156-.777343.203126-2.25.460938-4.707031.460938-13.066406 0-22.269531-6.027344-35.007812-14.367188-18.09375-11.847656-40.613281-26.59375-79.875-26.59375-34.5625 0-64.617188 12.363282-86.917969 35.75-37.757812 39.605469-38.289062 97.113282-37.953125 109.136719v49.917969c0 11.035156 8.945313 19.980469 19.976563 19.980469 11.035156 0 19.980468-8.945313 19.980468-19.980469v-50.214844c0-.207031-.003906-.414062-.007812-.621094-.164063-5.191406-.78125-51.582031 26.925781-80.640624 14.574219-15.285157 34.628906-23.367188 57.996094-23.367188zm386.605469-105.570312c-.117188-65.949219-17.296876-115.953126-51.070313-148.628907-38.375-37.128906-84.46875-37.582031-89.972656-37.503906-41.730469.058594-69.59375 19.425781-88.046875 32.25-4.78125 3.324219-11.042969 7.675781-14.617188 9.316406-.105468-.128906-.222656-.265625-.339844-.417969-.226562-.285156-.460937-.5625-.703124-.835937-16.335938-18.410156-24.972657-40.988281-24.972657-65.285156 0-11.035157-8.945312-19.980469-19.980469-19.980469-11.035156 0-19.980468 8.945312-19.980468 19.980469 0 34.054687 12 65.660156 34.707031 91.425781 14.175781 17.484375 30.546875 16.625 39.082031 14.53125 10.34375-2.535156 19.273438-8.738281 29.609375-15.921875 16.929688-11.765625 36.121094-25.101563 65.429688-25.101563.222656 0 .441406-.003906.660156-.011718.335937-.003906 33.824219-.347656 61.339844 26.273437 25.8125 24.96875 38.898437 65.542969 38.898437 120.585938 0 .472656.019532.964843.050782 1.4375.054687.746093 4.976562 75.316406-22.398438 140.695312-4.261719 10.175781.535156 21.882813 10.710938 26.144531 2.523437 1.058594 5.136718 1.558594 7.710937 1.554688 7.8125 0 15.230469-4.609375 18.4375-12.265625 29.910156-71.4375 26.027344-149.121094 25.445313-158.242187zm0 0"/></svg>