<svg height="682.66669pt" viewBox="-21 -21 682.66669 682.66669" width="682.66669pt" xmlns="http://www.w3.org/2000/svg"><path d="m546.273438 93.726562c-60.433594-60.441406-140.800782-93.726562-226.273438-93.726562s-165.839844 33.285156-226.273438 93.726562c-60.441406 60.433594-93.726562 140.800782-93.726562 226.273438s33.285156 165.839844 93.726562 226.273438c60.433594 60.441406 140.800782 93.726562 226.273438 93.726562s165.839844-33.285156 226.273438-93.726562c60.441406-60.433594 93.726562-140.800782 93.726562-226.273438s-33.285156-165.839844-93.726562-226.273438zm-226.273438 484.550782c-142.414062 0-258.277344-115.863282-258.277344-258.277344s115.863282-258.277344 258.277344-258.277344 258.277344 115.863282 258.277344 258.277344-115.863282 258.277344-258.277344 258.277344zm158.925781-258.277344c0-10.351562 8.398438-18.75 18.75-18.75h42.300781c-3.953124-46.789062-22.550781-89.460938-51.1875-123.398438l-29.773437 29.773438c-7.328125 7.3125-19.203125 7.3125-26.53125 0-7.308594-7.328125-7.308594-19.203125 0-26.527344l29.789063-29.785156c-33.960938-28.6875-76.6875-47.335938-123.523438-51.289062v42.300781c0 10.351562-8.398438 18.75-18.75 18.75s-18.75-8.398438-18.75-18.75v-42.300781c-46.789062 3.953124-89.449219 22.550781-123.398438 51.1875l29.886719 29.886718c7.324219 7.324219 7.324219 19.199219 0 26.527344-3.660156 3.648438-8.460937 5.484375-13.265625 5.484375-4.800781 0-9.597656-1.820313-13.246094-5.484375l-29.902343-29.898438c-28.699219 33.960938-47.347657 76.6875-51.300781 123.523438h42.300781c10.351562 0 18.75 8.398438 18.75 18.75s-8.398438 18.75-18.75 18.75h-42.300781c3.953124 46.835938 22.601562 89.5625 51.300781 123.523438l29.902343-29.898438c7.308594-7.328125 19.183594-7.328125 26.511719 0 7.324219 7.328125 7.324219 19.203125 0 26.527344l-29.886719 29.886718c33.949219 28.636719 76.609376 47.234376 123.398438 51.1875v-42.300781c0-10.351562 8.398438-18.75 18.75-18.75s18.75 8.398438 18.75 18.75v42.300781c46.835938-3.953124 89.5625-22.601562 123.523438-51.300781l-29.773438-29.773437c-7.324219-7.324219-7.324219-19.199219 0-26.527344 7.3125-7.328125 19.1875-7.3125 26.515625 0l29.773437 29.773438c28.636719-33.949219 47.234376-76.609376 51.1875-123.398438h-42.300781c-10.351562 0-18.75-8.398438-18.75-18.75zm-97.828125 60.953125c-3.660156 3.671875-8.460937 5.511719-13.269531 5.511719-4.789063 0-9.578125-1.824219-13.238281-5.480469l-47.378906-47.257813c-3.847657-3.839843-5.960938-8.941406-5.960938-14.367187v-113.546875c0-10.347656 8.398438-18.75 18.75-18.75s18.75 8.402344 18.75 18.75v106.414062l42.324219 42.210938c7.324219 7.3125 7.339843 19.1875.023437 26.515625zm0 0"/></svg>