<svg height="512pt" viewBox="0 -61 512 512" width="512pt" xmlns="http://www.w3.org/2000/svg"><path d="m75 285h399.5c20.710938 0 37.5-16.789062 37.5-37.5s-16.789062-37.5-37.5-37.5h-384.5c-49.707031 0-90 40.292969-90 90s40.292969 90 90 90h384.5c20.710938 0 37.5-16.789062 37.5-37.5s-16.789062-37.5-37.5-37.5h-399.5c-8.285156 0-15-6.714844-15-15s6.714844-15 15-15zm0 0"/><path d="m422 0h-384.5c-20.710938 0-37.5 16.789062-37.5 37.5s16.789062 37.5 37.5 37.5h399.5c8.285156 0 15 6.714844 15 15s-6.714844 15-15 15h-399.5c-20.710938 0-37.5 16.789062-37.5 37.5s16.789062 37.5 37.5 37.5h384.5c49.707031 0 90-40.292969 90-90s-40.292969-90-90-90zm0 0"/></svg>