<svg height="512pt" viewBox="0 -62 512 511" width="512pt" xmlns="http://www.w3.org/2000/svg"><path d="m437 27.175781h-26.722656c-8.238282-4.925781-28.25-15.832031-53.140625-22.054687-39.316407-9.828125-73.980469-3.90625-101.136719 17.09375-27.152344-21-61.816406-26.921875-101.136719-17.09375-24.890625 6.222656-44.902343 17.128906-53.140625 22.054687h-26.722656c-41.355469 0-75 33.644531-75 75 0 37.222657 27.261719 68.183594 62.867188 74.003907 7.679687 18.167968 30.039062 30.996093 57.132812 30.996093 33.644531 0 60-19.769531 60-45 0-25.234375-26.355469-45-60-45-25.902344 0-47.46875 11.71875-56.03125 28.625-19.496094-4.929687-33.96875-22.617187-33.96875-43.625 0-24.816406 20.1875-45 45-45h17.949219c2.796875 9.804688 8.605469 17.4375 17.363281 22.78125 9.871094 6.019531 21.800781 7.992188 33.335938 9.898438 19.941406 3.292969 32.511718 6.21875 38.941406 19.042969 8.824218 17.597656 9.910156 49.273437 11.058594 82.808593.179687 5.292969.363281 10.667969.578124 16.097657.636719 16.078124 6.53125 30.328124 16.773438 40.878906v138.488281h90v-138.488281c10.238281-10.550782 16.132812-24.800782 16.769531-40.878906.21875-5.429688.402344-10.804688.582031-16.097657 1.144532-33.535156 2.230469-65.210937 11.054688-82.808593 6.449219-12.859376 19.023438-15.777344 38.960938-19.050782 11.535156-1.890625 23.457031-3.847656 33.328124-9.871094 8.761719-5.339843 14.5625-12.980468 17.359376-22.800781h17.945312c24.8125 0 45 20.183594 45 45 0 21.007813-14.472656 38.695313-33.96875 43.625-8.5625-16.90625-30.128906-28.625-56.03125-28.625-33.644531 0-60 19.765625-60 45 0 25.230469 26.355469 45 60 45 27.097656 0 49.453125-12.824219 57.132812-30.996093 35.605469-5.820313 62.867188-36.78125 62.867188-74.003907 0-41.355469-33.644531-75-75-75zm-317 120c18.3125 0 30 8.882813 30 15 0 6.113281-11.6875 15-30 15s-30-8.886719-30-15c0-6.117187 11.6875-15 30-15zm243.507812-86.929687c-19.894531 3.265625-47.144531 7.738281-60.914062 35.203125-11.769531 23.464843-12.90625 56.722656-14.222656 95.230469-.179688 5.242187-.359375 10.558593-.574219 15.9375-.679687 17.132812-9.710937 22.578124-16.796875 28.140624v122.417969h-30v-122.417969c-6.941406-5.453124-16.109375-10.882812-16.796875-28.144531-.214844-5.375-.394531-10.691406-.574219-15.933593-1.316406-38.507813-2.453125-71.769532-14.222656-95.230469-13.742188-27.40625-40.980469-31.90625-60.867188-35.191407-17.484374-2.890624-24.082031-4.839843-26.394531-10.1875 8.566407-4.667968 23.402344-11.792968 40.738281-16.027343 34.007813-8.304688 61.769532-2.003907 82.511719 18.738281l10.605469 10.605469 10.605469-10.605469c20.742187-20.742188 48.503906-27.042969 82.511719-18.738281 17.34375 4.234375 32.183593 11.367187 40.746093 16.03125-2.304687 5.359375-8.886719 7.304687-26.355469 10.171875zm28.492188 116.929687c-18.3125 0-30-8.886719-30-15 0-6.117187 11.6875-15 30-15s30 8.882813 30 15c0 6.113281-11.6875 15-30 15zm0 0"/></svg>