<?xml version="1.0" encoding="utf-8"?>
<!-- Generator: Adobe Illustrator 16.0.0, SVG Export Plug-In . SVG Version: 6.00 Build 0)  -->
<!DOCTYPE svg PUBLIC "-//W3C//DTD SVG 1.1//EN" "http://www.w3.org/Graphics/SVG/1.1/DTD/svg11.dtd">
<svg version="1.1" id="Слой_1" xmlns="http://www.w3.org/2000/svg" xmlns:xlink="http://www.w3.org/1999/xlink" x="0px" y="0px"
	 width="54px" height="54px" viewBox="0 0 54 54" enable-background="new 0 0 54 54" xml:space="preserve">
<path d="M25.747-0.011c1.055,0.008,2.109,0.017,3.164,0.026c0.136,0.03,0.269,0.08,0.405,0.091c3.726,0.294,7.25,1.303,10.499,3.142
	c7.63,4.313,12.23,10.807,13.803,19.429c0.185,1.013,0.264,2.046,0.395,3.07c-0.01,1.055-0.018,2.108-0.026,3.164
	c-0.033,0.151-0.082,0.303-0.094,0.455c-0.338,4.166-1.557,8.06-3.754,11.608c-4.314,6.968-10.521,11.201-18.602,12.645
	c-1.016,0.182-2.047,0.265-3.072,0.395c-1.056-0.01-2.109-0.018-3.164-0.026c-0.38-0.047-0.763-0.096-1.143-0.142
	c-4.362-0.51-8.406-1.919-12.045-4.38C5.706,45.13,1.747,39.17,0.383,31.53c-0.18-1.014-0.268-2.043-0.397-3.066
	c0.009-1.055,0.018-2.108,0.027-3.163c0.031-0.152,0.081-0.304,0.094-0.457c0.343-4.167,1.576-8.056,3.78-11.606
	C8.264,6.185,14.535,1.857,22.727,0.381C23.725,0.203,24.741,0.12,25.747-0.011z M26.861,50.847
	c13.074,0.15,23.828-10.382,23.985-23.489c0.156-13.185-10.367-24.035-23.475-24.2C14.172,2.989,3.296,13.641,3.153,26.874
	C3.016,39.952,13.64,50.695,26.861,50.847z"/>
<path d="M26.891,47.672C15.518,47.545,6.195,38.116,6.33,26.876C6.467,15.563,16.015,6.211,27.309,6.332
	c11.257,0.117,20.49,9.637,20.362,20.991C47.544,38.626,38.18,47.798,26.891,47.672z M38.365,13.691
	c-2.835-2.359-5.942-3.717-9.533-4.099c-0.005,0.513,0.001,0.967-0.013,1.421c-0.028,0.951-0.688,1.637-1.572,1.642
	c-0.904,0.006-1.578-0.701-1.589-1.674c-0.006-0.454,0.005-0.907,0.009-1.413c-3.663,0.349-6.837,1.696-9.676,4.009
	c0.322,0.317,0.606,0.58,0.87,0.861c0.683,0.736,0.694,1.667,0.039,2.306c-0.657,0.639-1.58,0.604-2.304-0.099
	c-0.283-0.274-0.542-0.576-0.831-0.886c-2.371,2.84-3.772,5.982-4.173,9.623c0.238,0.001,0.412,0.003,0.585,0.004
	c1.729,0.016,2.475,0.495,2.474,1.589c0.001,1.103-0.761,1.587-2.474,1.575c-0.189-0.002-0.379-0.003-0.619-0.006
	c0.342,3.612,1.634,6.758,3.942,9.587c0.355-0.376,0.623-0.777,0.995-1.019c0.375-0.243,0.863-0.479,1.281-0.448
	c1.264,0.095,1.835,1.517,1.047,2.513c-0.328,0.419-0.731,0.78-1.112,1.183c2.829,2.329,6.012,3.679,9.666,4.051
	c0.004-0.508,0.002-0.945,0.014-1.381c0.024-0.987,0.684-1.684,1.584-1.681c0.903,0.002,1.565,0.707,1.576,1.688
	c0.005,0.454-0.006,0.905-0.01,1.402c3.617-0.331,6.77-1.617,9.581-3.886c-0.329-0.33-0.619-0.61-0.899-0.899
	c-0.759-0.787-0.811-1.711-0.139-2.382c0.674-0.674,1.612-0.621,2.378,0.145c0.296,0.294,0.566,0.612,0.884,0.96
	c2.335-2.82,3.685-5.944,4.06-9.547c-0.519-0.004-0.974,0-1.427-0.014c-0.948-0.028-1.634-0.694-1.635-1.578
	c-0.001-0.903,0.704-1.57,1.683-1.582c0.452-0.006,0.906,0.005,1.41,0.01c-0.324-3.673-1.617-6.887-3.969-9.82
	c-0.327,0.364-0.609,0.727-0.941,1.039c-0.706,0.664-1.632,0.659-2.265,0.021c-0.63-0.638-0.621-1.565,0.048-2.263
	C37.629,14.316,37.987,14.03,38.365,13.691z"/>
<path d="M24.669,27.085c-1.66-1.682-3.261-3.306-4.861-4.933c-0.161-0.162-0.325-0.324-0.458-0.508
	c-0.477-0.649-0.394-1.509,0.183-2.061c0.563-0.538,1.395-0.59,2.023-0.12c0.153,0.115,0.291,0.254,0.427,0.39
	c1.935,1.966,3.869,3.931,5.801,5.899c0.94,0.955,0.933,1.775-0.025,2.719c-1.99,1.96-3.984,3.914-5.971,5.877
	c-0.438,0.433-0.928,0.701-1.556,0.584c-1.182-0.223-1.686-1.597-0.938-2.54c0.142-0.18,0.311-0.335,0.473-0.496
	C21.382,30.312,22.998,28.727,24.669,27.085z"/>
</svg>
