<?xml version="1.0" encoding="utf-8"?>
<!-- Generator: Adobe Illustrator 16.0.0, SVG Export Plug-In . SVG Version: 6.00 Build 0)  -->
<!DOCTYPE svg PUBLIC "-//W3C//DTD SVG 1.1//EN" "http://www.w3.org/Graphics/SVG/1.1/DTD/svg11.dtd">
<svg version="1.1" id="Capa_1" xmlns="http://www.w3.org/2000/svg" xmlns:xlink="http://www.w3.org/1999/xlink" x="0px" y="0px"
	 width="475.084px" height="475.084px" viewBox="0 0 475.084 475.084" enable-background="new 0 0 475.084 475.084"
	 xml:space="preserve">
<g>
	<g>
		<path d="M0,438.54c0,10.089,3.565,18.699,10.704,25.837c7.139,7.139,15.749,10.705,25.838,10.705
			c10.287,0,18.841-3.618,25.693-10.849l97.929-97.642c34.07,23.599,72.043,35.405,113.922,35.405
			c27.216,0,53.244-5.281,78.085-15.844c24.838-10.568,46.254-24.84,64.241-42.825c17.988-17.994,32.265-39.403,42.826-64.241
			c10.564-24.845,15.847-50.867,15.847-78.083c0-27.218-5.282-53.246-15.847-78.087c-10.563-24.838-24.838-46.254-42.826-64.241
			c-17.987-17.987-39.399-32.264-64.241-42.826C327.333,5.285,301.302,0.003,274.086,0.003c-27.218,0-53.247,5.282-78.092,15.847
			c-24.837,10.562-46.246,24.839-64.233,42.826c-17.986,17.987-32.264,39.399-42.825,64.241
			c-10.567,24.838-15.852,50.869-15.852,78.087c0,41.877,11.806,79.849,35.406,113.917l-97.93,97.926
			C3.518,419.89,0,428.451,0,438.54z M146.174,200.998c0-35.21,12.515-65.334,37.549-90.36
			c25.032-25.027,55.151-37.546,90.363-37.546c35.21,0,65.334,12.514,90.359,37.546c25.028,25.026,37.547,55.15,37.547,90.36
			c0,35.216-12.516,65.331-37.547,90.36c-25.03,25.029-55.149,37.549-90.359,37.549c-35.216,0-65.335-12.516-90.363-37.549
			C158.693,266.329,146.174,236.214,146.174,200.998z"/>
		<path d="M185.427,185.44c-1.804,1.809-2.702,3.949-2.702,6.424v18.271c0,2.475,0.898,4.617,2.702,6.424
			c1.815,1.808,3.949,2.713,6.427,2.713h63.954v63.954c0,2.479,0.905,4.616,2.712,6.428c1.809,1.804,3.95,2.707,6.423,2.707h18.272
			c2.474,0,4.614-0.903,6.423-2.707c1.807-1.812,2.712-3.949,2.712-6.428v-63.954h63.954c2.477,0,4.614-0.904,6.423-2.713
			c1.81-1.807,2.712-3.949,2.712-6.424v-18.271c0-2.475-0.902-4.615-2.712-6.424c-1.808-1.807-3.949-2.712-6.423-2.712H292.35
			v-63.953c0-2.475-0.905-4.615-2.712-6.424c-1.808-1.809-3.949-2.712-6.423-2.712h-18.273c-2.472,0-4.613,0.903-6.423,2.712
			c-1.807,1.809-2.712,3.949-2.712,6.424v63.953h-63.953C189.376,182.728,187.234,183.633,185.427,185.44z"/>
	</g>
</g>
</svg>
